{
.appVersion = "1161";
DisplayStrings = (
"THE QUICK\012BRown"
);
classes = (
{
automatic = 1;

glyphs = (
{
glyphname = A;
layers = (
{
anchors = (
{
name = bottom;
position = "{451, 0}";
},
{
name = ogonek;
position = "{806, 7}";
},
{
name = top;
position = "{428, 700}";
}
);
layerId = "1C2BFDD8-856B-473B-8B37-FA70972360C9";
paths = (
{
closed = 1;
nodes = (
"91 0 LINE",
"181 232 LINE",
"401 232 LINE",
"506 0 LINE",
"884 0 LINE",
"574 700 LINE",
"282 700 LINE",
"18 0 LINE"
);
},
{
closed = 1;
nodes = (
"282 496 LINE",
"373 293 LINE",
"203 293 LINE"
);
}
);
width = 902;
}
);
leftKerningGroup = A;
rightKerningGroup = A;
unicode = 0041;
},
{
glyphname = AE;
layers = (
{
layerId = "1C2BFDD8-856B-473B-8B37-FA70972360C9";
paths = (
{
closed = 1;
nodes = (
"1393 0 LINE",
"1393 60 LINE",
"1017 60 LINE",
"1017 322 LINE",
"1202 322 LINE",
"1202 382 LINE",
"1017 382 LINE",
"1017 641 LINE",
"1393 641 LINE",
"1393 700 LINE",
"667 700 LINE",
"667 0 LINE"
);
},
{
closed = 1;
nodes = (
"348 0 LINE",
"611 700 LINE",
"279 700 LINE",
"18 0 LINE"
);
},
{
closed = 1;
nodes = (
"755 232 LINE",
"755 293 LINE",
"368 293 LINE",
"368 232 LINE"
);
},
{
closed = 1;
nodes = (
"953 639 LINE",
"953 700 LINE",
"488 700 LINE",
"488 639 LINE"
);
}
);
width = 1421;
}
);
leftKerningGroup = A;
rightKerningGroup = E;
unicode = 00C6;
},
{
glyphname = B;
layers = (
{
anchors = (
{
name = top;
position = "{385, 700}";
}
);
layerId = "1C2BFDD8-856B-473B-8B37-FA70972360C9";
paths = (
{
closed = 1;
nodes = (
"703 0 LINE",
"806 0 OFFCURVE",
"889 83 OFFCURVE",
"889 185 CURVE",
"889 252 OFFCURVE",
"853 315 OFFCURVE",
"801 351 CURVE",
"853 386 OFFCURVE",
"889 449 OFFCURVE",
"889 515 CURVE",
"889 618 OFFCURVE",
"806 700 OFFCURVE",
"703 700 CURVE",
"36 700 LINE",
"36 0 LINE"
);
},
{
closed = 1;
nodes = (
"397 58 OFFCURVE",
"392 58 OFFCURVE",
"387 59 CURVE",
"387 321 LINE",
"402 321 LINE",
"475 321 OFFCURVE",
"534 262 OFFCURVE",
"534 190 CURVE",
"534 117 OFFCURVE",
"475 58 OFFCURVE",
"402 58 CURVE"
);
},
{
closed = 1;
nodes = (
"397 379 OFFCURVE",
"392 379 OFFCURVE",
"387 380 CURVE",
"387 643 LINE",
"402 643 LINE",
"475 643 OFFCURVE",
"534 584 OFFCURVE",
"534 510 CURVE",
"534 438 OFFCURVE",
"475 379 OFFCURVE",
"402 379 CURVE"
);
}
);
width = 921;
}
);
leftKerningGroup = H;
rightKerningGroup = B;
unicode = 0042;
},
{
glyphname = C;
layers = (
{
anchors = (
{
name = top;
position = "{420, 706}";
}
);
layerId = "1C2BFDD8-856B-473B-8B37-FA70972360C9";
paths = (
{
closed = 1;
nodes = (
"490 65 OFFCURVE",
"451 97 OFFCURVE",
"427 162 CURVE",
"408 211 OFFCURVE",
"399 274 OFFCURVE",
"399 351 CURVE",
"399 397 OFFCURVE",
"402 440 OFFCURVE",
"410 480 CURVE",
"420 527 OFFCURVE",
"434 563 OFFCURVE",
"454 589 CURVE",
"476 620 OFFCURVE",
"506 636 OFFCURVE",
"541 636 CURVE",
"665 636 OFFCURVE",
"705 501 OFFCURVE",
"711 427 CURVE",
"768 427 LINE",
"764 491 OFFCURVE",
"742 574 OFFCURVE",
"693 630 CURVE",
"633 698 OFFCURVE",
"538 706 OFFCURVE",
"420 706 CURVE",
"288 706 OFFCURVE",
"195 695 OFFCURVE",
"114 614 CURVE",
"55 555 OFFCURVE",
"28 466 OFFCURVE",
"28 351 CURVE",
"28 239 OFFCURVE",
"60 151 OFFCURVE",
"124 87 CURVE",
"189 23 OFFCURVE",
"272 -5 OFFCURVE",
"420 -5 CURVE",
"552 -5 OFFCURVE",
"642 1 OFFCURVE",
"708 90 CURVE",
"742 135 OFFCURVE",
"769 196 OFFCURVE",
"779 274 CURVE",
"717 274 LINE",
"702 173 OFFCURVE",
"650 65 OFFCURVE",
"541 65 CURVE"
);
}
);
width = 807;
}
);
leftKerningGroup = C;
rightKerningGroup = C;
unicode = 0043;
},
{
glyphname = D;
layers = (
{
anchors = (
{
name = top;
position = "{203, 700}";
}
);
layerId = "1C2BFDD8-856B-473B-8B37-FA70972360C9";
paths = (
{
closed = 1;
nodes = (
"554 0 LINE",
"650 0 OFFCURVE",
"732 34 OFFCURVE",
"801 102 CURVE",
"870 171 OFFCURVE",
"904 254 OFFCURVE",
"904 351 CURVE",
"904 447 OFFCURVE",
"870 529 OFFCURVE",
"801 598 CURVE",
"732 666 OFFCURVE",
"650 700 OFFCURVE",
"554 700 CURVE",
"28 700 LINE",
"28 0 LINE"
);
},
{
closed = 1;
nodes = (
"378 642 LINE",
"438 642 LINE",
"474 642 OFFCURVE",
"502 630 OFFCURVE",
"519 605 CURVE",
"535 584 OFFCURVE",
"545 554 OFFCURVE",
"549 515 CURVE",
"552 476 OFFCURVE",
"555 422 OFFCURVE",
"555 351 CURVE",
"555 274 OFFCURVE",
"553 223 OFFCURVE",
"550 197 CURVE",
"546 151 OFFCURVE",
"535 117 OFFCURVE",
"520 95 CURVE",
"503 70 OFFCURVE",
"475 58 OFFCURVE",
"438 58 CURVE",
"378 58 LINE"
);
}
);
width = 925;
}
);
leftKerningGroup = H;
rightKerningGroup = O;
unicode = 0044;
},
{
glyphname = E;
layers = (
{
anchors = (
{
name = top;
position = "{392, 700}";
}
);
layerId = "1C2BFDD8-856B-473B-8B37-FA70972360C9";
paths = (
{
closed = 1;
nodes = (
"755 0 LINE",
"755 60 LINE",
"380 60 LINE",
"380 322 LINE",
"564 322 LINE",
"564 382 LINE",
"380 382 LINE",
"380 641 LINE",
"755 641 LINE",
"755 700 LINE",
"28 700 LINE",
"28 0 LINE"
);
}
);
width = 784;
}
);
leftKerningGroup = H;
rightKerningGroup = E;
unicode = 0045;
},
{
glyphname = F;
layers = (
{
anchors = (
{
name = top;
position = "{392, 700}";
}
);
layerId = "1C2BFDD8-856B-473B-8B37-FA70972360C9";
paths = (
{
closed = 1;
nodes = (
"379 0 LINE",
"379 322 LINE",
"563 322 LINE",
"563 382 LINE",
"379 382 LINE",
"379 641 LINE",
"754 641 LINE",
"754 700 LINE",
"28 700 LINE",
"28 0 LINE"
);
}
);
width = 783;
}
);
leftKerningGroup = H;
rightKerningGroup = F;
unicode = 0046;
},
{
glyphname = G;
layers = (
{
anchors = (
{
name = top;
position = "{421, 706}";
}
);
layerId = "1C2BFDD8-856B-473B-8B37-FA70972360C9";
paths = (
{
closed = 1;
nodes = (
"28 239 OFFCURVE",
"61 151 OFFCURVE",
"125 87 CURVE SMOOTH",
"190 23 OFFCURVE",
"272 -5 OFFCURVE",
"421 -5 CURVE SMOOTH",
"465 -5 OFFCURVE",
"691 0 OFFCURVE",
"848 0 CURVE",
"848 342 LINE",
"542 342 LINE",
"542 65 LINE",
"490 65 OFFCURVE",
"452 97 OFFCURVE",
"427 162 CURVE SMOOTH",
"409 211 OFFCURVE",
"399 274 OFFCURVE",
"399 351 CURVE SMOOTH",
"399 397 OFFCURVE",
"403 440 OFFCURVE",
"411 480 CURVE SMOOTH",
"420 527 OFFCURVE",
"435 563 OFFCURVE",
"454 589 CURVE SMOOTH",
"477 620 OFFCURVE",
"506 636 OFFCURVE",
"542 636 CURVE SMOOTH",
"666 636 OFFCURVE",
"705 501 OFFCURVE",
"712 427 CURVE",
"769 427 LINE",
"765 491 OFFCURVE",
"742 574 OFFCURVE",
"693 630 CURVE SMOOTH",
"634 698 OFFCURVE",
"539 706 OFFCURVE",
"421 706 CURVE SMOOTH",
"288 706 OFFCURVE",
"196 695 OFFCURVE",
"115 614 CURVE SMOOTH",
"55 555 OFFCURVE",
"28 466 OFFCURVE",
"28 351 CURVE SMOOTH"
);
}
);
width = 876;
}
);
leftKerningGroup = C;
rightKerningGroup = G;
unicode = 0047;
},
{
glyphname = H;
layers = (
{
anchors = (
{
name = top;
position = "{479, 700}";
}
);
layerId = "1C2BFDD8-856B-473B-8B37-FA70972360C9";
paths = (
{
closed = 1;
nodes = (
"368 0 LINE",
"368 320 LINE",
"589 320 LINE",
"589 0 LINE",
"929 0 LINE",
"929 700 LINE",
"589 700 LINE",
"589 387 LINE",
"368 387 LINE",
"368 700 LINE",
"28 700 LINE",
"28 0 LINE"
);
}
);
width = 957;
}
);
leftKerningGroup = H;
rightKerningGroup = H;
unicode = 0048;
},
{
glyphname = I;
layers = (
{
anchors = (
{
name = top;
position = "{191, 700}";
}
);
layerId = "1C2BFDD8-856B-473B-8B37-FA70972360C9";
paths = (
{
closed = 1;
nodes = (
"354 0 LINE",
"354 700 LINE",
"28 700 LINE",
"28 0 LINE"
);
}
);
width = 383;
}
);
leftKerningGroup = H;
rightKerningGroup = H;
unicode = 0049;
},
{
glyphname = J;
layers = (
{
anchors = (
{
name = top;
position = "{510, 700}";
}
);
layerId = "1C2BFDD8-856B-473B-8B37-FA70972360C9";
paths = (
{
closed = 1;
nodes = (
"613 -5 OFFCURVE",
"700 69 OFFCURVE",
"700 210 CURVE SMOOTH",
"700 700 LINE",
"318 700 LINE",
"318 210 LINE SMOOTH",
"318 110 OFFCURVE",
"267 74 OFFCURVE",
"203 74 CURVE SMOOTH",
"139 74 OFFCURVE",
"87 105 OFFCURVE",
"87 210 CURVE SMOOTH",
"87 265 LINE",
"28 265 LINE",
"28 210 LINE SMOOTH",
"28 37 OFFCURVE",
"137 -5 OFFCURVE",
"364 -5 CURVE SMOOTH"
);
}
);
width = 728;
}
);
leftKerningGroup = J;
rightKerningGroup = H;
unicode = 004A;
},
{
glyphname = K;
layers = (
{
anchors = (
{
name = top;
position = "{460, 700}";
}
);
layerId = "1C2BFDD8-856B-473B-8B37-FA70972360C9";
paths = (
{
closed = 1;
nodes = (
"939 0 LINE",
"717 351 LINE",
"892 700 LINE",
"543 700 LINE",
"379 351 LINE",
"586 0 LINE"
);
},
{
closed = 1;
nodes = (
"379 0 LINE",
"379 700 LINE",
"28 700 LINE",
"28 0 LINE"
);
}
);
width = 967;
}
);
leftKerningGroup = H;
rightKerningGroup = K;
unicode = 004B;
},
{
glyphname = L;
layers = (
{
anchors = (
{
name = top;
position = "{203, 700}";
}
);
layerId = "1C2BFDD8-856B-473B-8B37-FA70972360C9";
paths = (
{
closed = 1;
nodes = (
"759 0 LINE",
"759 60 LINE",
"379 60 LINE",
"379 700 LINE",
"28 700 LINE",
"28 0 LINE"
);
}
);
width = 788;
}
);
leftKerningGroup = H;
rightKerningGroup = L;
unicode = 004C;
},
{
glyphname = M;
layers = (
{
anchors = (
{
name = top;
position = "{465, 700}";
}
);
layerId = "1C2BFDD8-856B-473B-8B37-FA70972360C9";
paths = (
{
closed = 1;
nodes = (
"378 0 LINE",
"582 525 LINE",
"582 0 LINE",
"902 0 LINE",
"902 700 LINE",
"582 700 LINE",
"466 408 LINE",
"320 700 LINE",
"28 700 LINE",
"28 0 LINE",
"87 0 LINE",
"87 466 LINE",
"291 0 LINE"
);
}
);
width = 931;
}
);
leftKerningGroup = H;
rightKerningGroup = H;
unicode = 004D;
},
{
glyphname = N;
layers = (
{
anchors = (
{
name = top;
position = "{351, 700}";
}
);
layerId = "1C2BFDD8-856B-473B-8B37-FA70972360C9";
paths = (
{
closed = 1;
nodes = (
"89 0 LINE",
"89 466 LINE",
"439 0 LINE",
"674 0 LINE",
"674 700 LINE",
"614 700 LINE",
"614 350 LINE",
"322 700 LINE",
"28 700 LINE",
"28 0 LINE"
);
}
);
width = 702;
}
);
leftKerningGroup = H;
rightKerningGroup = H;
unicode = 004E;
},
{
glyphname = O;
layers = (
{
anchors = (
{
name = top;
position = "{496, 706}";
}
);
layerId = "1C2BFDD8-856B-473B-8B37-FA70972360C9";
paths = (
{
closed = 1;
nodes = (
"757 -5 OFFCURVE",
"969 117 OFFCURVE",
"969 351 CURVE",
"969 582 OFFCURVE",
"757 706 OFFCURVE",
"496 706 CURVE",
"233 706 OFFCURVE",
"21 582 OFFCURVE",
"21 351 CURVE",
"21 117 OFFCURVE",
"233 -5 OFFCURVE",
"496 -5 CURVE"
);
},
{
closed = 1;
nodes = (
"467 54 OFFCURVE",
"446 67 OFFCURVE",
"432 92 CURVE",
"421 113 OFFCURVE",
"413 148 OFFCURVE",
"410 195 CURVE",
"407 221 OFFCURVE",
"407 273 OFFCURVE",
"407 351 CURVE",
"407 423 OFFCURVE",
"408 479 OFFCURVE",
"411 518 CURVE",
"414 557 OFFCURVE",
"421 588 OFFCURVE",
"433 609 CURVE",
"447 634 OFFCURVE",
"467 647 OFFCURVE",
"496 647 CURVE",
"523 647 OFFCURVE",
"544 634 OFFCURVE",
"557 609 CURVE",
"570 588 OFFCURVE",
"577 557 OFFCURVE",
"579 518 CURVE",
"583 479 OFFCURVE",
"584 423 OFFCURVE",
"584 351 CURVE",
"584 273 OFFCURVE",
"583 221 OFFCURVE",
"581 195 CURVE",
"577 148 OFFCURVE",
"570 113 OFFCURVE",
"558 92 CURVE",
"545 67 OFFCURVE",
"524 54 OFFCURVE",
"496 54 CURVE"
);
}
);
width = 990;
}
);
leftKerningGroup = O;
rightKerningGroup = O;
unicode = 004F;
},
{
glyphname = OE;
layers = (
{
anchors = (
{
name = top;
position = "{717, 700}";
}
);
layerId = "1C2BFDD8-856B-473B-8B37-FA70972360C9";
paths = (
{
closed = 1;
nodes = (
"21 130 OFFCURVE",
"195 1 OFFCURVE",
"510 0 CURVE",
"1332 0 LINE",
"1332 60 LINE",
"957 60 LINE",
"957 322 LINE",
"1141 322 LINE",
"1141 382 LINE",
"957 382 LINE",
"957 641 LINE",
"1332 641 LINE",
"1332 700 LINE",
"510 700 LINE SMOOTH",
"233 700 OFFCURVE",
"21 582 OFFCURVE",
"21 351 CURVE SMOOTH"
);
},
{
closed = 1;
nodes = (
"407 423 OFFCURVE",
"408 479 OFFCURVE",
"411 518 CURVE SMOOTH",
"414 557 OFFCURVE",
"421 588 OFFCURVE",
"433 609 CURVE SMOOTH",
"447 634 OFFCURVE",
"467 647 OFFCURVE",
"496 647 CURVE SMOOTH",
"523 647 OFFCURVE",
"544 634 OFFCURVE",
"557 609 CURVE SMOOTH",
"570 588 OFFCURVE",
"577 557 OFFCURVE",
"579 518 CURVE SMOOTH",
"583 479 OFFCURVE",
"584 423 OFFCURVE",
"584 351 CURVE SMOOTH",
"584 273 OFFCURVE",
"583 221 OFFCURVE",
"581 195 CURVE SMOOTH",
"577 148 OFFCURVE",
"570 113 OFFCURVE",
"558 92 CURVE SMOOTH",
"545 67 OFFCURVE",
"524 54 OFFCURVE",
"496 54 CURVE SMOOTH",
"467 54 OFFCURVE",
"446 67 OFFCURVE",
"432 92 CURVE SMOOTH",
"421 113 OFFCURVE",
"413 148 OFFCURVE",
"410 195 CURVE SMOOTH",
"407 221 OFFCURVE",
"407 273 OFFCURVE",
"407 351 CURVE SMOOTH"
);
}
);
width = 1361;
}
);
leftKerningGroup = O;
rightKerningGroup = E;
unicode = 0152;
},
{
glyphname = P;
layers = (
{
anchors = (
{
name = top;
position = "{360, 700}";
}
);
layerId = "1C2BFDD8-856B-473B-8B37-FA70972360C9";
paths = (
{
closed = 1;
nodes = (
"360 0 LINE",
"360 321 LINE",
"665 322 LINE",
"779 322 OFFCURVE",
"859 410 OFFCURVE",
"859 513 CURVE",
"859 629 OFFCURVE",
"779 700 OFFCURVE",
"663 700 CURVE",
"28 700 LINE",
"28 0 LINE"
);
},
{
closed = 1;
nodes = (
"360 643 LINE",
"360 643 OFFCURVE",
"395 643 OFFCURVE",
"395 643 CURVE",
"468 643 OFFCURVE",
"527 584 OFFCURVE",
"527 510 CURVE",
"527 438 OFFCURVE",
"468 379 OFFCURVE",
"395 379 CURVE",
"360 379 LINE"
);
}
);
width = 880;
}
);
leftKerningGroup = H;
rightKerningGroup = P;
unicode = 0050;
},
{
glyphname = Thorn;
layers = (
{
layerId = "1C2BFDD8-856B-473B-8B37-FA70972360C9";
paths = (
{
closed = 1;
nodes = (
"360 0 LINE",
"360 171 LINE",
"665 171 LINE",
"779 171 OFFCURVE",
"859 259 OFFCURVE",
"859 362 CURVE",
"859 479 OFFCURVE",
"779 550 OFFCURVE",
"663 550 CURVE",
"360 550 LINE",
"360 700 LINE",
"28 700 LINE",
"28 0 LINE"
);
},
{
closed = 1;
nodes = (
"360 492 LINE",
"360 492 OFFCURVE",
"395 492 OFFCURVE",
"395 492 CURVE",
"468 492 OFFCURVE",
"527 433 OFFCURVE",
"527 360 CURVE",
"527 287 OFFCURVE",
"468 228 OFFCURVE",
"395 228 CURVE",
"360 228 LINE"
);
}
);
width = 880;
}
);
leftKerningGroup = H;
rightKerningGroup = O;
unicode = 00DE;
},
{
glyphname = Q;
layers = (
{
anchors = (
{
name = top;
position = "{495, 706}";
}
);
layerId = "1C2BFDD8-856B-473B-8B37-FA70972360C9";
paths = (
{
closed = 1;
nodes = (
"757 -5 OFFCURVE",
"969 117 OFFCURVE",
"969 351 CURVE",
"969 582 OFFCURVE",
"757 706 OFFCURVE",
"495 706 CURVE",
"233 706 OFFCURVE",
"21 582 OFFCURVE",
"21 351 CURVE",
"21 117 OFFCURVE",
"233 -5 OFFCURVE",
"495 -5 CURVE"
);
},
{
closed = 1;
nodes = (
"466 54 OFFCURVE",
"446 67 OFFCURVE",
"432 92 CURVE",
"420 113 OFFCURVE",
"413 148 OFFCURVE",
"410 195 CURVE",
"407 221 OFFCURVE",
"406 273 OFFCURVE",
"406 351 CURVE",
"406 423 OFFCURVE",
"407 479 OFFCURVE",
"411 518 CURVE",
"414 557 OFFCURVE",
"421 588 OFFCURVE",
"433 609 CURVE",
"447 634 OFFCURVE",
"467 647 OFFCURVE",
"495 647 CURVE",
"523 647 OFFCURVE",
"544 634 OFFCURVE",
"557 609 CURVE",
"570 588 OFFCURVE",
"577 557 OFFCURVE",
"579 518 CURVE",
"582 479 OFFCURVE",
"584 423 OFFCURVE",
"584 351 CURVE",
"584 273 OFFCURVE",
"583 221 OFFCURVE",
"581 195 CURVE",
"577 148 OFFCURVE",
"570 113 OFFCURVE",
"558 92 CURVE",
"545 67 OFFCURVE",
"523 54 OFFCURVE",
"495 54 CURVE"
);
},
{
closed = 1;
nodes = (
"969 -64 LINE",
"762 286 LINE",
"605 286 LINE",
"605 44 LINE",
"552 44 LINE",
"579 -23 OFFCURVE",
"664 -64 OFFCURVE",
"742 -64 CURVE"
);
}
);
width = 990;
}
);
leftKerningGroup = O;
rightKerningGroup = Q;
unicode = 0051;
},
{
glyphname = R;
layers = (
{
anchors = (
{
name = top;
position = "{360, 700}";
}
);
layerId = "1C2BFDD8-856B-473B-8B37-FA70972360C9";
paths = (
{
closed = 1;
nodes = (
"360 0 LINE",
"360 321 LINE",
"387 320 LINE",
"403 319 OFFCURVE",
"419 317 OFFCURVE",
"436 314 CURVE",
"452 311 OFFCURVE",
"467 306 OFFCURVE",
"481 298 CURVE",
"493 291 OFFCURVE",
"504 280 OFFCURVE",
"513 267 CURVE",
"521 255 OFFCURVE",
"525 238 OFFCURVE",
"525 217 CURVE",
"525 159 LINE",
"525 0 LINE",
"702 0 LINE",
"705 0 LINE",
"860 0 LINE",
"860 159 LINE",
"860 181 LINE",
"860 252 OFFCURVE",
"808 313 OFFCURVE",
"737 333 CURVE",
"818 353 OFFCURVE",
"878 433 OFFCURVE",
"878 519 CURVE",
"878 619 OFFCURVE",
"797 700 OFFCURVE",
"697 700 CURVE",
"28 700 LINE",
"28 0 LINE"
);
},
{
closed = 1;
nodes = (
"360 643 LINE",
"395 643 LINE",
"468 643 OFFCURVE",
"527 584 OFFCURVE",
"527 510 CURVE",
"527 438 OFFCURVE",
"468 379 OFFCURVE",
"395 379 CURVE",
"360 378 LINE"
);
}
);
width = 907;
}
);
leftKerningGroup = H;
rightKerningGroup = R;
unicode = 0052;
},
{
glyphname = S;
layers = (
{
anchors = (
{
name = top;
position = "{407, 706}";
}
);
layerId = "1C2BFDD8-856B-473B-8B37-FA70972360C9";
paths = (
{
closed = 1;
nodes = (
"415 486 LINE",
"315 513 OFFCURVE",
"295 538 OFFCURVE",
"295 570 CURVE",
"295 614 OFFCURVE",
"340 643 OFFCURVE",
"425 643 CURVE",
"571 643 OFFCURVE",
"675 578 OFFCURVE",
"675 578 CURVE",
"708 624 LINE",
"708 624 OFFCURVE",
"584 706 OFFCURVE",
"370 706 CURVE",
"144 706 OFFCURVE",
"21 602 OFFCURVE",
"21 474 CURVE",
"21 369 OFFCURVE",
"102 292 OFFCURVE",
"242 250 CURVE",
"372 212 LINE",
"447 191 OFFCURVE",
"479 162 OFFCURVE",
"479 128 CURVE",
"479 87 OFFCURVE",
"439 63 OFFCURVE",
"359 63 CURVE",
"174 63 OFFCURVE",
"58 162 OFFCURVE",
"58 162 CURVE",
"25 117 LINE",
"25 117 OFFCURVE",
"151 -5 OFFCURVE",
"430 -5 CURVE",
"668 -5 OFFCURVE",
"793 95 OFFCURVE",
"793 228 CURVE",
"793 344 OFFCURVE",
"708 408 OFFCURVE",
"556 449 CURVE"
);
}
);
width = 815;
}
);
leftKerningGroup = S;
rightKerningGroup = S;
unicode = 0053;
},
{
glyphname = Germandbls;
layers = (
{
layerId = "1C2BFDD8-856B-473B-8B37-FA70972360C9";
paths = (
{
closed = 1;
nodes = (
"380 0 LINE",
"380 517 LINE",
"380 583 OFFCURVE",
"381 647 OFFCURVE",
"439 647 CURVE",
"501 647 OFFCURVE",
"523 583 OFFCURVE",
"523 517 CURVE",
"523 451 OFFCURVE",
"503 378 OFFCURVE",
"430 378 CURVE",
"425 378 OFFCURVE",
"420 378 OFFCURVE",
"415 379 CURVE",
"415 321 LINE",
"430 321 LINE",
"503 321 OFFCURVE",
"562 262 OFFCURVE",
"562 189 CURVE",
"562 117 OFFCURVE",
"503 58 OFFCURVE",
"430 58 CURVE",
"425 58 OFFCURVE",
"420 58 OFFCURVE",
"415 58 CURVE",
"415 0 LINE",
"732 0 LINE",
"835 0 OFFCURVE",
"917 83 OFFCURVE",
"917 185 CURVE",
"917 274 OFFCURVE",
"856 348 OFFCURVE",
"781 376 CURVE",
"811 402 OFFCURVE",
"835 440 OFFCURVE",
"835 493 CURVE",
"835 643 OFFCURVE",
"644 706 OFFCURVE",
"439 706 CURVE",
"234 706 OFFCURVE",
"28 657 OFFCURVE",
"28 450 CURVE",
"28 0 LINE"
);
}
);
width = 949;
}
);
leftKerningGroup = H;
rightKerningGroup = B;
unicode = 1E9E;
},
{
glyphname = T;
layers = (
{
anchors = (
{
name = top;
position = "{460, 700}";
}
);
layerId = "1C2BFDD8-856B-473B-8B37-FA70972360C9";
paths = (
{
closed = 1;
nodes = (
"634 0 LINE",
"634 641 LINE",
"898 641 LINE",
"898 700 LINE",
"21 700 LINE",
"21 641 LINE",
"284 641 LINE",
"284 0 LINE"
);
}
);
width = 919;
}
);
leftKerningGroup = T;
rightKerningGroup = T;
unicode = 0054;
},
{
glyphname = U;
layers = (
{
anchors = (
{
name = top;
position = "{364, 700}";
}
);
layerId = "1C2BFDD8-856B-473B-8B37-FA70972360C9";
paths = (
{
closed = 1;
nodes = (
"592 -5 OFFCURVE",
"700 37 OFFCURVE",
"700 210 CURVE",
"700 210 OFFCURVE",
"700 700 OFFCURVE",
"700 700 CURVE",
"641 700 LINE",
"641 210 LINE",
"641 105 OFFCURVE",
"589 74 OFFCURVE",
"525 74 CURVE",
"461 74 OFFCURVE",
"410 110 OFFCURVE",
"410 210 CURVE",
"410 700 LINE",
"28 700 LINE",
"28 210 LINE",
"28 69 OFFCURVE",
"115 -5 OFFCURVE",
"364 -5 CURVE"
);
}
);
width = 728;
}
);
leftKerningGroup = U;
rightKerningGroup = U;
unicode = 0055;
},
{
glyphname = V;
layers = (
{
anchors = (
{
name = top;
position = "{422, 700}";
}
);
layerId = "1C2BFDD8-856B-473B-8B37-FA70972360C9";
paths = (
{
closed = 1;
nodes = (
"569 0 LINE",
"833 700 LINE",
"756 700 LINE",
"564 184 LINE",
"335 700 LINE",
"11 700 LINE",
"321 0 LINE"
);
}
);
width = 843;
}
);
leftKerningGroup = V;
rightKerningGroup = V;
unicode = 0056;
},
{
glyphname = W;
layers = (
{
anchors = (
{
name = top;
position = "{857, 700}";
}
);
layerId = "1C2BFDD8-856B-473B-8B37-FA70972360C9";
paths = (
{
closed = 1;
nodes = (
"595 0 LINE",
"719 328 LINE",
"864 0 LINE",
"1167 0 LINE",
"1431 700 LINE",
"1354 700 LINE",
"1162 183 LINE",
"932 700 LINE",
"782 700 LINE",
"585 171 LINE",
"351 700 LINE",
"11 700 LINE",
"321 0 LINE"
);
}
);
width = 1442;
}
);
leftKerningGroup = V;
rightKerningGroup = V;
unicode = 0057;
},
{
glyphname = X;
layers = (
{
anchors = (
{
name = top;
position = "{408, 700}";
}
);
layerId = "1C2BFDD8-856B-473B-8B37-FA70972360C9";
paths = (
{
closed = 1;
nodes = (
"105 0 LINE",
"259 279 LINE",
"398 0 LINE",
"748 0 LINE",
"574 348 LINE",
"768 700 LINE",
"690 700 LINE",
"538 422 LINE",
"398 700 LINE",
"48 700 LINE",
"222 353 LINE",
"28 0 LINE"
);
}
);
width = 796;
}
);
leftKerningGroup = X;
rightKerningGroup = X;
unicode = 0058;
},
{
glyphname = Y;
layers = (
{
anchors = (
{
name = top;
position = "{398, 700}";
}
);
layerId = "1C2BFDD8-856B-473B-8B37-FA70972360C9";
paths = (
{
closed = 1;
nodes = (
"588 0 LINE",
"588 321 LINE",
"774 700 LINE",
"697 700 LINE",
"557 414 LINE",
"413 700 LINE",
"21 700 LINE",
"238 321 LINE",
"238 0 LINE"
);
}
);
width = 796;
}
);
leftKerningGroup = Y;
rightKerningGroup = Y;
unicode = 0059;
},
{
glyphname = Z;
layers = (
{
anchors = (
{
name = top;
position = "{422, 700}";
}
);
layerId = "1C2BFDD8-856B-473B-8B37-FA70972360C9";
paths = (
{
closed = 1;
nodes = (
"816 0 LINE",
"816 58 LINE",
"437 58 LINE",
"816 700 LINE",
"28 700 LINE",
"28 642 LINE",
"408 642 LINE",
"28 0 LINE"
);
}
);
width = 845;
}
);
leftKerningGroup = Z;
rightKerningGroup = Z;
unicode = 005A;
},
{
glyphname = j.ss01;
layers = (
{
anchors = (
{
name = top;
position = "{350, 700}";
}
);
layerId = "1C2BFDD8-856B-473B-8B37-FA70972360C9";
paths = (
{
closed = 1;
nodes = (
"453 -5 OFFCURVE",
"540 69 OFFCURVE",
"540 210 CURVE SMOOTH",
"540 700 LINE",
"158 700 LINE",
"158 210 LINE SMOOTH",
"158 110 OFFCURVE",
"107 74 OFFCURVE",
"28 74 CURVE",
"28 6 LINE",
"73 -2 OFFCURVE",
"141 -5 OFFCURVE",
"204 -5 CURVE SMOOTH"
);
}
);
width = 568;
}
);
leftKerningGroup = J;
rightKerningGroup = H;
},
{
glyphname = ordfeminine;
layers = (
{
layerId = "1C2BFDD8-856B-473B-8B37-FA70972360C9";
paths = (
{
closed = 1;
nodes = (
"77 395 LINE",
"107 473 LINE",
"205 473 LINE",
"241 395 LINE",
"406 395 LINE",
"270 700 LINE",
"144 700 LINE",
"28 395 LINE"
);
},
{
closed = 1;
nodes = (
"152 593 LINE",
"186 517 LINE",
"123 517 LINE"
);
}
);
width = 434;
}
);
unicode = 00AA;
},
{
glyphname = ordmasculine;
layers = (
{
layerId = "1C2BFDD8-856B-473B-8B37-FA70972360C9";
paths = (
{
closed = 1;
nodes = (
"349 389 OFFCURVE",
"444 444 OFFCURVE",
"444 547 CURVE",
"444 651 OFFCURVE",
"349 706 OFFCURVE",
"232 706 CURVE",
"116 706 OFFCURVE",
"21 651 OFFCURVE",
"21 547 CURVE",
"21 444 OFFCURVE",
"116 389 OFFCURVE",
"232 389 CURVE"
);
},
{
closed = 1;
nodes = (
"196 432 OFFCURVE",
"186 472 OFFCURVE",
"186 547 CURVE",
"186 623 OFFCURVE",
"196 663 OFFCURVE",
"232 663 CURVE",
"270 663 OFFCURVE",
"280 623 OFFCURVE",
"280 547 CURVE",
"280 472 OFFCURVE",
"270 432 OFFCURVE",
"232 432 CURVE"
);
}
);
width = 465;
}
);
unicode = 00BA;
},
{
glyphname = zero;
layers = (
{
components = (
{
name = slashlongcomb;
transform = "{1, 0, 0, 1, 7, 0}";
}
);
layerId = "1C2BFDD8-856B-473B-8B37-FA70972360C9";
paths = (
{
closed = 1;
nodes = (
"581 -5 OFFCURVE",
"714 141 OFFCURVE",
"714 351 CURVE",
"714 560 OFFCURVE",
"581 706 OFFCURVE",
"368 706 CURVE",
"154 706 OFFCURVE",
"21 560 OFFCURVE",
"21 351 CURVE",
"21 141 OFFCURVE",
"154 -5 OFFCURVE",
"368 -5 CURVE"
);
},
{
closed = 1;
nodes = (
"339 54 OFFCURVE",
"319 67 OFFCURVE",
"305 92 CURVE",
"293 113 OFFCURVE",
"286 144 OFFCURVE",
"283 183 CURVE",
"280 223 OFFCURVE",
"279 278 OFFCURVE",
"279 351 CURVE",
"279 423 OFFCURVE",
"279 479 OFFCURVE",
"283 518 CURVE",
"286 557 OFFCURVE",
"293 588 OFFCURVE",
"305 609 CURVE",
"319 634 OFFCURVE",
"339 647 OFFCURVE",
"368 647 CURVE",
"396 647 OFFCURVE",
"417 634 OFFCURVE",
"430 609 CURVE",
"442 588 OFFCURVE",
"449 557 OFFCURVE",
"452 518 CURVE",
"456 479 OFFCURVE",
"457 423 OFFCURVE",
"457 351 CURVE",
"457 278 OFFCURVE",
"456 223 OFFCURVE",
"452 183 CURVE",
"449 144 OFFCURVE",
"442 113 OFFCURVE",
"430 92 CURVE",
"417 67 OFFCURVE",
"396 54 OFFCURVE",
"368 54 CURVE"
);
}
);
width = 735;
}
);
leftKerningGroup = "0";
rightKerningGroup = "0";
unicode = 0030;
},
{
glyphname = one;
layers = (
{
layerId = "1C2BFDD8-856B-473B-8B37-FA70972360C9";
paths = (
{
closed = 1;
nodes = (
"471 0 LINE",
"471 700 LINE",
"144 579 LINE",
"144 0 LINE"
);
},
{
closed = 1;
nodes = (
"471 640 LINE",
"471 711 LINE",
"28 593 LINE",
"28 522 LINE"
);
}
);
width = 499;
}
);
leftKerningGroup = "1";
rightKerningGroup = H;
unicode = 0031;
},
{
glyphname = two;
layers = (
{
layerId = "1C2BFDD8-856B-473B-8B37-FA70972360C9";
paths = (
{
closed = 1;
nodes = (
"675 60 LINE",
"422 60 LINE",
"422 60 OFFCURVE",
"422 60 OFFCURVE",
"576 296 CURVE",
"598 331 OFFCURVE",
"626 384 OFFCURVE",
"636 424 CURVE",
"680 619 OFFCURVE",
"519 706 OFFCURVE",
"365 706 CURVE",
"183 706 OFFCURVE",
"78 611 OFFCURVE",
"54 468 CURVE",
"115 468 LINE",
"124 525 OFFCURVE",
"177 631 OFFCURVE",
"282 631 CURVE",
"331 631 OFFCURVE",
"360 602 OFFCURVE",
"360 559 CURVE",
"360 497 OFFCURVE",
"282 381 OFFCURVE",
"247 330 CURVE",
"28 0 LINE",
"675 0 LINE"
);
}
);
width = 703;
}
);
unicode = 0032;
},
{
glyphname = three;
layers = (
{
layerId = "1C2BFDD8-856B-473B-8B37-FA70972360C9";
paths = (
{
closed = 1;
nodes = (
"602 -6 OFFCURVE",
"741 98 OFFCURVE",
"741 257 CURVE",
"741 359 OFFCURVE",
"682 437 OFFCURVE",
"592 480 CURVE",
"702 695 LINE",
"97 695 LINE",
"97 635 LINE",
"349 635 LINE",
"240 422 LINE",
"413 422 OFFCURVE",
"471 343 OFFCURVE",
"471 245 CURVE",
"471 142 OFFCURVE",
"409 72 OFFCURVE",
"308 72 CURVE",
"205 73 OFFCURVE",
"105 135 OFFCURVE",
"90 267 CURVE",
"28 267 LINE",
"39 112 OFFCURVE",
"154 -6 OFFCURVE",
"381 -6 CURVE"
);
}
);
width = 769;
}
);
unicode = 0033;
},
{
glyphname = four;
layers = (
{
layerId = "1C2BFDD8-856B-473B-8B37-FA70972360C9";
paths = (
{
closed = 1;
nodes = (
"669 0 LINE",
"669 141 LINE",
"816 141 LINE",
"816 201 LINE",
"669 201 LINE",
"669 700 LINE",
"432 700 LINE",
"14 141 LINE",
"336 141 LINE",
"336 0 LINE"
);
},
{
closed = 1;
nodes = (
"336 459 LINE",
"336 201 LINE",
"146 201 LINE"
);
}
);
width = 837;
}
);
leftKerningGroup = "4";
rightKerningGroup = "4";
unicode = 0034;
},
{
glyphname = five;
layers = (
{
layerId = "1C2BFDD8-856B-473B-8B37-FA70972360C9";
paths = (
{
closed = 1;
nodes = (
"594 -5 OFFCURVE",
"720 113 OFFCURVE",
"720 272 CURVE",
"720 435 OFFCURVE",
"594 520 OFFCURVE",
"374 527 CURVE",
"387 641 LINE",
"643 641 LINE",
"643 700 LINE",
"113 700 LINE",
"66 361 LINE",
"128 358 LINE",
"267 352 OFFCURVE",
"447 346 OFFCURVE",
"447 200 CURVE",
"447 130 OFFCURVE",
"395 73 OFFCURVE",
"301 73 CURVE",
"199 73 OFFCURVE",
"98 136 OFFCURVE",
"82 267 CURVE",
"21 267 LINE",
"32 112 OFFCURVE",
"146 -5 OFFCURVE",
"374 -5 CURVE"
);
}
);
width = 741;
}
);
leftKerningGroup = "5";
rightKerningGroup = "5";
unicode = 0035;
},
{
glyphname = six;
layers = (
{
layerId = "1C2BFDD8-856B-473B-8B37-FA70972360C9";
paths = (
{
closed = 1;
nodes = (
"557 -5 OFFCURVE",
"709 92 OFFCURVE",
"709 265 CURVE",
"709 411 OFFCURVE",
"580 498 OFFCURVE",
"432 504 CURVE",
"545 700 LINE",
"218 700 LINE",
"218 700 OFFCURVE",
"218 700 OFFCURVE",
"92 483 CURVE",
"41 395 OFFCURVE",
"21 339 OFFCURVE",
"21 279 CURVE",
"21 90 OFFCURVE",
"181 -5 OFFCURVE",
"369 -5 CURVE"
);
},
{
closed = 1;
nodes = (
"348 54 OFFCURVE",
"333 63 OFFCURVE",
"324 81 CURVE",
"315 97 OFFCURVE",
"309 122 OFFCURVE",
"307 155 CURVE",
"306 174 OFFCURVE",
"305 187 OFFCURVE",
"305 242 CURVE",
"305 256 LINE",
"305 311 OFFCURVE",
"306 325 OFFCURVE",
"307 344 CURVE",
"309 378 OFFCURVE",
"315 402 OFFCURVE",
"324 418 CURVE",
"333 436 OFFCURVE",
"348 444 OFFCURVE",
"369 444 CURVE",
"389 444 OFFCURVE",
"404 436 OFFCURVE",
"414 418 CURVE",
"422 402 OFFCURVE",
"428 378 OFFCURVE",
"430 344 CURVE",
"432 325 OFFCURVE",
"432 311 OFFCURVE",
"432 256 CURVE",
"432 242 LINE",
"432 187 OFFCURVE",
"432 174 OFFCURVE",
"430 155 CURVE",
"428 122 OFFCURVE",
"422 97 OFFCURVE",
"414 81 CURVE",
"404 63 OFFCURVE",
"389 54 OFFCURVE",
"369 54 CURVE"
);
}
);
width = 730;
}
);
leftKerningGroup = "6";
rightKerningGroup = "6";
unicode = 0036;
},
{
glyphname = seven;
layers = (
{
layerId = "1C2BFDD8-856B-473B-8B37-FA70972360C9";
paths = (
{
closed = 1;
nodes = (
"488 0 LINE",
"753 700 LINE",
"28 700 LINE",
"28 641 LINE",
"387 641 LINE",
"149 0 LINE"
);
}
);
width = 767;
}
);
leftKerningGroup = T;
rightKerningGroup = V;
unicode = 0037;
},
{
glyphname = eight;
layers = (
{
layerId = "1C2BFDD8-856B-473B-8B37-FA70972360C9";
paths = (
{
closed = 1;
nodes = (
"641 -6 OFFCURVE",
"829 48 OFFCURVE",
"829 215 CURVE",
"829 318 OFFCURVE",
"759 376 OFFCURVE",
"684 396 CURVE",
"745 414 OFFCURVE",
"796 460 OFFCURVE",
"796 538 CURVE",
"796 667 OFFCURVE",
"630 705 OFFCURVE",
"429 705 CURVE",
"228 705 OFFCURVE",
"61 667 OFFCURVE",
"61 538 CURVE",
"61 460 OFFCURVE",
"112 414 OFFCURVE",
"173 396 CURVE",
"98 376 OFFCURVE",
"28 318 OFFCURVE",
"28 215 CURVE",
"28 48 OFFCURVE",
"216 -6 OFFCURVE",
"429 -6 CURVE"
);
},
{
closed = 1;
nodes = (
"408 53 OFFCURVE",
"392 61 OFFCURVE",
"383 77 CURVE",
"375 90 OFFCURVE",
"369 112 OFFCURVE",
"366 141 CURVE",
"365 157 OFFCURVE",
"364 170 OFFCURVE",
"364 215 CURVE",
"364 260 OFFCURVE",
"365 273 OFFCURVE",
"366 289 CURVE",
"368 314 OFFCURVE",
"375 333 OFFCURVE",
"383 346 CURVE",
"393 361 OFFCURVE",
"408 369 OFFCURVE",
"429 369 CURVE",
"449 369 OFFCURVE",
"464 361 OFFCURVE",
"474 346 CURVE",
"483 333 OFFCURVE",
"489 314 OFFCURVE",
"491 289 CURVE",
"493 273 OFFCURVE",
"493 260 OFFCURVE",
"493 215 CURVE",
"493 170 OFFCURVE",
"493 157 OFFCURVE",
"491 141 CURVE",
"488 112 OFFCURVE",
"483 90 OFFCURVE",
"474 77 CURVE",
"465 61 OFFCURVE",
"449 53 OFFCURVE",
"429 53 CURVE"
);
},
{
closed = 1;
nodes = (
"410 428 OFFCURVE",
"395 434 OFFCURVE",
"387 446 CURVE",
"371 467 OFFCURVE",
"369 510 OFFCURVE",
"369 533 CURVE",
"369 533 OFFCURVE",
"369 536 OFFCURVE",
"369 537 CURVE",
"369 538 OFFCURVE",
"369 540 OFFCURVE",
"369 541 CURVE",
"369 564 OFFCURVE",
"371 607 OFFCURVE",
"387 628 CURVE",
"395 640 OFFCURVE",
"410 646 OFFCURVE",
"429 646 CURVE",
"448 646 OFFCURVE",
"462 640 OFFCURVE",
"471 628 CURVE",
"486 607 OFFCURVE",
"488 564 OFFCURVE",
"488 541 CURVE",
"488 540 OFFCURVE",
"488 538 OFFCURVE",
"488 537 CURVE",
"488 536 OFFCURVE",
"488 533 OFFCURVE",
"488 533 CURVE",
"488 510 OFFCURVE",
"486 467 OFFCURVE",
"471 446 CURVE",
"462 434 OFFCURVE",
"448 428 OFFCURVE",
"429 428 CURVE"
);
}
);
width = 857;
}
);
leftKerningGroup = "8";
rightKerningGroup = "8";
unicode = 0038;
},
{
glyphname = nine;
layers = (
{
layerId = "1C2BFDD8-856B-473B-8B37-FA70972360C9";
paths = (
{
closed = 1;
nodes = (
"513 0 LINE",
"513 0 OFFCURVE",
"513 0 OFFCURVE",
"638 217 CURVE",
"689 305 OFFCURVE",
"709 361 OFFCURVE",
"709 422 CURVE",
"709 610 OFFCURVE",
"549 705 OFFCURVE",
"361 705 CURVE",
"173 705 OFFCURVE",
"21 609 OFFCURVE",
"21 435 CURVE",
"21 289 OFFCURVE",
"150 202 OFFCURVE",
"299 196 CURVE",
"185 0 LINE"
);
},
{
closed = 1;
nodes = (
"341 256 OFFCURVE",
"326 264 OFFCURVE",
"316 282 CURVE",
"308 298 OFFCURVE",
"302 323 OFFCURVE",
"300 356 CURVE",
"299 375 OFFCURVE",
"298 389 OFFCURVE",
"298 444 CURVE",
"298 458 LINE",
"298 513 OFFCURVE",
"299 526 OFFCURVE",
"300 545 CURVE",
"302 579 OFFCURVE",
"308 604 OFFCURVE",
"316 619 CURVE",
"326 637 OFFCURVE",
"341 646 OFFCURVE",
"361 646 CURVE",
"382 646 OFFCURVE",
"397 637 OFFCURVE",
"407 619 CURVE",
"415 604 OFFCURVE",
"421 579 OFFCURVE",
"423 545 CURVE",
"424 526 OFFCURVE",
"425 513 OFFCURVE",
"425 458 CURVE",
"425 444 LINE",
"425 389 OFFCURVE",
"424 375 OFFCURVE",
"423 356 CURVE",
"421 323 OFFCURVE",
"415 298 OFFCURVE",
"407 282 CURVE",
"397 264 OFFCURVE",
"382 256 OFFCURVE",
"361 256 CURVE"
);
}
);
width = 730;
}
);
leftKerningGroup = "9";
unicode = 0039;
},
{
glyphname = onesuperior;
layers = (
{
layerId = "1C2BFDD8-856B-473B-8B37-FA70972360C9";
paths = (
{
closed = 1;
nodes = (
"222 395 LINE",
"222 706 LINE",
"28 654 LINE",
"28 589 LINE",
"79 604 LINE",
"79 395 LINE"
);
}
);
width = 250;
}
);
unicode = 00B9;
},
{
glyphname = twosuperior;
layers = (
{
layerId = "1C2BFDD8-856B-473B-8B37-FA70972360C9";
paths = (
{
closed = 1;
nodes = (
"314 395 LINE",
"314 454 LINE",
"224 454 LINE",
"224 454 OFFCURVE",
"224 454 OFFCURVE",
"270 525 CURVE",
"280 540 OFFCURVE",
"292 564 OFFCURVE",
"296 582 CURVE",
"316 668 OFFCURVE",
"245 706 OFFCURVE",
"177 706 CURVE",
"97 706 OFFCURVE",
"46 665 OFFCURVE",
"35 601 CURVE",
"95 601 LINE",
"101 626 OFFCURVE",
"119 644 OFFCURVE",
"141 644 CURVE",
"154 644 OFFCURVE",
"166 638 OFFCURVE",
"166 622 CURVE",
"166 598 OFFCURVE",
"140 562 OFFCURVE",
"125 540 CURVE",
"28 395 LINE"
);
}
);
width = 342;
}
);
unicode = 00B2;
},
{
glyphname = threesuperior;
layers = (
{
layerId = "1C2BFDD8-856B-473B-8B37-FA70972360C9";
paths = (
{
closed = 1;
nodes = (
"284 389 OFFCURVE",
"346 435 OFFCURVE",
"346 506 CURVE",
"346 551 OFFCURVE",
"319 586 OFFCURVE",
"279 605 CURVE",
"328 700 LINE",
"55 700 LINE",
"55 641 LINE",
"154 641 LINE",
"117 568 LINE",
"180 568 OFFCURVE",
"204 537 OFFCURVE",
"204 501 CURVE",
"204 468 OFFCURVE",
"184 448 OFFCURVE",
"153 448 CURVE",
"122 449 OFFCURVE",
"92 463 OFFCURVE",
"87 510 CURVE",
"28 510 LINE",
"33 441 OFFCURVE",
"84 389 OFFCURVE",
"186 389 CURVE"
);
}
);
width = 374;
}
);
unicode = 00B3;
},
{
glyphname = foursuperior;
layers = (
{
layerId = "1C2BFDD8-856B-473B-8B37-FA70972360C9";
paths = (
{
closed = 1;
nodes = (
"344 395 LINE",
"344 434 LINE",
"408 434 LINE",
"408 494 LINE",
"344 494 LINE",
"344 700 LINE",
"226 700 LINE",
"28 434 LINE",
"198 434 LINE",
"198 395 LINE"
);
},
{
closed = 1;
nodes = (
"198 560 LINE",
"198 494 LINE",
"149 494 LINE"
);
}
);
width = 437;
}
);
unicode = 2074;
},
{
glyphname = fraction;
layers = (
{
layerId = "1C2BFDD8-856B-473B-8B37-FA70972360C9";
paths = (
{
closed = 1;
nodes = (
"211 0 LINE",
"617 700 LINE",
"428 700 LINE",
"21 0 LINE"
);
}
);
width = 638;
}
);
unicode = 2044;
},
{
glyphname = onehalf;
layers = (
{
layerId = "1C2BFDD8-856B-473B-8B37-FA70972360C9";
paths = (
{
closed = 1;
nodes = (
"257 395 LINE",
"257 706 LINE",
"64 654 LINE",
"64 589 LINE",
"114 604 LINE",
"114 395 LINE"
);
},
{
closed = 1;
nodes = (
"734 0 LINE",
"734 60 LINE",
"645 60 LINE",
"645 60 OFFCURVE",
"645 60 OFFCURVE",
"691 131 CURVE",
"701 146 OFFCURVE",
"713 169 OFFCURVE",
"717 187 CURVE",
"737 273 OFFCURVE",
"666 311 OFFCURVE",
"598 311 CURVE",
"518 311 OFFCURVE",
"466 270 OFFCURVE",
"456 206 CURVE",
"516 206 LINE",
"522 232 OFFCURVE",
"540 250 OFFCURVE",
"562 250 CURVE",
"574 250 OFFCURVE",
"587 244 OFFCURVE",
"587 228 CURVE",
"587 203 OFFCURVE",
"561 168 OFFCURVE",
"546 146 CURVE",
"449 0 LINE"
);
},
{
closed = 1;
nodes = (
"268 0 LINE",
"674 700 LINE",
"485 700 LINE",
"78 0 LINE"
);
}
);
width = 806;
}
);
unicode = 00BD;
},
{
glyphname = onequarter;
layers = (
{
layerId = "1C2BFDD8-856B-473B-8B37-FA70972360C9";
paths = (
{
closed = 1;
nodes = (
"268 0 LINE",
"674 700 LINE",
"485 700 LINE",
"78 0 LINE"
);
},
{
closed = 1;
nodes = (
"257 395 LINE",
"257 706 LINE",
"64 654 LINE",
"64 589 LINE",
"114 604 LINE",
"114 395 LINE"
);
},
{
closed = 1;
nodes = (
"695 0 LINE",
"695 40 LINE",
"759 40 LINE",
"759 100 LINE",
"695 100 LINE",
"695 306 LINE",
"577 306 LINE",
"379 40 LINE",
"549 40 LINE",
"549 0 LINE"
);
},
{
closed = 1;
nodes = (
"549 165 LINE",
"549 100 LINE",
"500 100 LINE"
);
}
);
width = 823;
}
);
unicode = 00BC;
},
{
glyphname = threequarters;
layers = (
{
layerId = "1C2BFDD8-856B-473B-8B37-FA70972360C9";
paths = (
{
closed = 1;
nodes = (
"312 389 OFFCURVE",
"374 435 OFFCURVE",
"374 506 CURVE",
"374 551 OFFCURVE",
"348 586 OFFCURVE",
"308 605 CURVE",
"356 700 LINE",
"83 700 LINE",
"83 641 LINE",
"183 641 LINE",
"146 568 LINE",
"208 568 OFFCURVE",
"232 537 OFFCURVE",
"232 501 CURVE",
"232 468 OFFCURVE",
"213 448 OFFCURVE",
"181 448 CURVE",
"150 449 OFFCURVE",
"121 463 OFFCURVE",
"115 510 CURVE",
"57 510 LINE",
"62 441 OFFCURVE",
"112 389 OFFCURVE",
"214 389 CURVE"
);
},
{
closed = 1;
nodes = (
"352 0 LINE",
"758 700 LINE",
"569 700 LINE",
"162 0 LINE"
);
},
{
closed = 1;
nodes = (
"779 0 LINE",
"779 40 LINE",
"843 40 LINE",
"843 100 LINE",
"779 100 LINE",
"779 306 LINE",
"661 306 LINE",
"463 40 LINE",
"633 40 LINE",
"633 0 LINE"
);
},
{
closed = 1;
nodes = (
"633 165 LINE",
"633 100 LINE",
"584 100 LINE"
);
}
);
width = 919;
}
);
widthMetricsKey = t;
unicode = 00BE;
},
{
glyphname = period;
layers = (
{
layerId = "1C2BFDD8-856B-473B-8B37-FA70972360C9";
paths = (
{
closed = 1;
nodes = (
"226 0 LINE",
"226 194 LINE",
"28 194 LINE",
"28 0 LINE"
);
}
);
width = 255;
}
);
leftKerningGroup = .;
rightKerningGroup = .;
unicode = 002E;
},
{
glyphname = comma;
layers = (
{
layerId = "1C2BFDD8-856B-473B-8B37-FA70972360C9";
paths = (
{
closed = 1;
nodes = (
"171 -112 LINE",
"226 194 LINE",
"28 194 LINE",
"28 -112 LINE"
);
}
);
width = 255;
}
);
leftKerningGroup = .;
rightKerningGroup = .;
unicode = 002C;
},
{
glyphname = colon;
layers = (
{
layerId = "1C2BFDD8-856B-473B-8B37-FA70972360C9";
paths = (
{
closed = 1;
nodes = (
"233 441 LINE",
"233 635 LINE",
"36 635 LINE",
"36 441 LINE"
);
},
{
closed = 1;
nodes = (
"233 0 LINE",
"233 194 LINE",
"36 194 LINE",
"36 0 LINE"
);
}
);
width = 269;
}
);
leftKerningGroup = H;
rightKerningGroup = H;
unicode = 003A;
},
{
glyphname = semicolon;
layers = (
{
layerId = "1C2BFDD8-856B-473B-8B37-FA70972360C9";
paths = (
{
closed = 1;
nodes = (
"233 441 LINE",
"233 635 LINE",
"36 635 LINE",
"36 441 LINE"
);
},
{
closed = 1;
nodes = (
"178 -112 LINE",
"233 194 LINE",
"36 194 LINE",
"36 -112 LINE"
);
}
);
width = 269;
}
);
leftKerningGroup = H;
rightKerningGroup = H;
unicode = 003B;
},
{
glyphname = exclam;
layers = (
{
layerId = "1C2BFDD8-856B-473B-8B37-FA70972360C9";
paths = (
{
closed = 1;
nodes = (
"316 223 LINE",
"316 700 LINE",
"32 700 LINE",
"32 223 LINE"
);
},
{
closed = 1;
nodes = (
"253 -5 OFFCURVE",
"320 16 OFFCURVE",
"320 91 CURVE",
"320 165 OFFCURVE",
"253 186 OFFCURVE",
"174 186 CURVE",
"95 186 OFFCURVE",
"28 165 OFFCURVE",
"28 91 CURVE",
"28 16 OFFCURVE",
"95 -5 OFFCURVE",
"174 -5 CURVE"
);
}
);
width = 348;
}
);
leftKerningGroup = H;
rightKerningGroup = H;
unicode = 0021;
},
{
glyphname = exclamdown;
layers = (
{
layerId = "1C2BFDD8-856B-473B-8B37-FA70972360C9";
paths = (
{
closed = 1;
nodes = (
"316 0 LINE",
"316 478 LINE",
"32 478 LINE",
"32 0 LINE"
);
},
{
closed = 1;
nodes = (
"253 514 OFFCURVE",
"320 535 OFFCURVE",
"320 609 CURVE",
"320 684 OFFCURVE",
"253 705 OFFCURVE",
"174 705 CURVE",
"95 705 OFFCURVE",
"28 684 OFFCURVE",
"28 609 CURVE",
"28 535 OFFCURVE",
"95 514 OFFCURVE",
"174 514 CURVE"
);
}
);
width = 348;
}
);
unicode = 00A1;
},
{
glyphname = question;
layers = (
{
layerId = "1C2BFDD8-856B-473B-8B37-FA70972360C9";
paths = (
{
closed = 1;
nodes = (
"451 229 LINE",
"466 312 OFFCURVE",
"597 353 OFFCURVE",
"597 489 CURVE",
"597 638 OFFCURVE",
"461 706 OFFCURVE",
"326 706 CURVE",
"144 706 OFFCURVE",
"46 611 OFFCURVE",
"21 468 CURVE",
"82 468 LINE",
"91 525 OFFCURVE",
"148 632 OFFCURVE",
"252 632 CURVE",
"302 632 OFFCURVE",
"331 602 OFFCURVE",
"331 560 CURVE",
"331 447 OFFCURVE",
"166 380 OFFCURVE",
"166 229 CURVE"
);
},
{
closed = 1;
nodes = (
"387 -5 OFFCURVE",
"454 16 OFFCURVE",
"454 91 CURVE",
"454 165 OFFCURVE",
"387 186 OFFCURVE",
"309 186 CURVE",
"230 186 OFFCURVE",
"163 165 OFFCURVE",
"163 91 CURVE",
"163 16 OFFCURVE",
"230 -5 OFFCURVE",
"309 -5 CURVE"
);
}
);
width = 619;
}
);
unicode = 003F;
},
{
glyphname = bullet;
layers = (
{
layerId = "1C2BFDD8-856B-473B-8B37-FA70972360C9";
paths = (
{
closed = 1;
nodes = (
"284 205 OFFCURVE",
"340 271 OFFCURVE",
"340 356 CURVE SMOOTH",
"340 440 OFFCURVE",
"284 506 OFFCURVE",
"191 506 CURVE SMOOTH",
"99 506 OFFCURVE",
"43 440 OFFCURVE",
"43 356 CURVE SMOOTH",
"43 271 OFFCURVE",
"99 205 OFFCURVE",
"191 205 CURVE SMOOTH"
);
}
);
width = 383;
}
);
unicode = 2022;
},
{
glyphname = asterisk;
layers = (
{
layerId = "1C2BFDD8-856B-473B-8B37-FA70972360C9";
paths = (
{
closed = 1;
nodes = (
"436 356 LINE",
"311 529 LINE",
"196 445 LINE",
"321 273 LINE"
);
},
{
closed = 1;
nodes = (
"311 445 LINE",
"196 529 LINE",
"70 356 LINE",
"185 273 LINE"
);
},
{
closed = 1;
nodes = (
"275 555 LINE",
"72 621 LINE",
"28 486 LINE",
"231 419 LINE"
);
},
{
closed = 1;
nodes = (
"324 487 LINE",
"324 700 LINE",
"182 700 LINE",
"182 487 LINE"
);
},
{
closed = 1;
nodes = (
"478 486 LINE",
"434 621 LINE",
"231 555 LINE",
"275 419 LINE"
);
}
);
width = 506;
}
);
unicode = 002A;
},
{
glyphname = numbersign;
layers = (
{
layerId = "1C2BFDD8-856B-473B-8B37-FA70972360C9";
paths = (
{
closed = 1;
nodes = (
"371 0 LINE",
"635 700 LINE",
"330 700 LINE",
"66 0 LINE"
);
},
{
closed = 1;
nodes = (
"1125 166 LINE",
"1125 228 LINE",
"21 228 LINE",
"21 166 LINE"
);
},
{
closed = 1;
nodes = (
"1125 483 LINE",
"1125 545 LINE",
"21 545 LINE",
"21 483 LINE"
);
},
{
closed = 1;
nodes = (
"816 0 LINE",
"1080 700 LINE",
"775 700 LINE",
"510 0 LINE"
);
}
);
width = 1146;
}
);
unicode = 0023;
},
{
glyphname = slash;
layers = (
{
layerId = "1C2BFDD8-856B-473B-8B37-FA70972360C9";
paths = (
{
closed = 1;
nodes = (
"227 -112 LINE",
"576 813 LINE",
"365 813 LINE",
"21 -112 LINE"
);
}
);
width = 597;
}
);
leftKerningGroup = A;
rightKerningGroup = V;
unicode = 002F;
},
{
glyphname = backslash;
layers = (
{
layerId = "1C2BFDD8-856B-473B-8B37-FA70972360C9";
paths = (
{
closed = 1;
nodes = (
"642 -112 LINE",
"232 813 LINE",
"21 813 LINE",
"431 -112 LINE"
);
}
);
width = 663;
}
);
leftKerningGroup = V;
rightKerningGroup = A;
unicode = 005C;
},
{
glyphname = period.ss01;
layers = (
{
layerId = "1C2BFDD8-856B-473B-8B37-FA70972360C9";
paths = (
{
closed = 1;
nodes = (
"185 -4 OFFCURVE",
"219 38 OFFCURVE",
"219 98 CURVE SMOOTH",
"219 158 OFFCURVE",
"185 201 OFFCURVE",
"120 201 CURVE SMOOTH",
"55 201 OFFCURVE",
"21 158 OFFCURVE",
"21 98 CURVE SMOOTH",
"21 38 OFFCURVE",
"55 -4 OFFCURVE",
"120 -4 CURVE SMOOTH"
);
}
);
width = 240;
}
);
leftKerningGroup = .;
rightKerningGroup = .;
},
{
glyphname = parenleft;
layers = (
{
layerId = "1C2BFDD8-856B-473B-8B37-FA70972360C9";
paths = (
{
closed = 1;
nodes = (
"412 -51 LINE",
"282 -51 OFFCURVE",
"269 81 OFFCURVE",
"269 351 CURVE",
"269 619 OFFCURVE",
"282 752 OFFCURVE",
"412 752 CURVE",
"412 813 LINE",
"210 813 OFFCURVE",
"28 734 OFFCURVE",
"28 351 CURVE",
"28 -33 OFFCURVE",
"210 -112 OFFCURVE",
"412 -112 CURVE"
);
}
);
width = 327;
}
);
unicode = 0028;
},
{
glyphname = parenright;
layers = (
{
layerId = "1C2BFDD8-856B-473B-8B37-FA70972360C9";
paths = (
{
closed = 1;
nodes = (
"118 -112 OFFCURVE",
"299 -33 OFFCURVE",
"299 351 CURVE",
"299 734 OFFCURVE",
"118 813 OFFCURVE",
"-85 813 CURVE",
"-85 752 LINE",
"46 752 OFFCURVE",
"58 619 OFFCURVE",
"58 351 CURVE",
"58 81 OFFCURVE",
"46 -51 OFFCURVE",
"-85 -51 CURVE",
"-85 -112 LINE"
);
}
);
width = 327;
}
);
unicode = 0029;
},
{
glyphname = braceleft;
layers = (
{
layerId = "1C2BFDD8-856B-473B-8B37-FA70972360C9";
paths = (
{
closed = 1;
nodes = (
"356 -112 OFFCURVE",
"412 -112 OFFCURVE",
"412 -112 CURVE",
"412 -51 LINE",
"341 -51 LINE",
"304 -51 OFFCURVE",
"292 -31 OFFCURVE",
"292 9 CURVE",
"289 232 OFFCURVE",
"292 -12 OFFCURVE",
"289 232 CURVE",
"289 296 OFFCURVE",
"255 351 OFFCURVE",
"182 351 CURVE",
"255 351 OFFCURVE",
"289 405 OFFCURVE",
"289 468 CURVE",
"292 712 OFFCURVE",
"289 468 OFFCURVE",
"292 691 CURVE",
"292 731 OFFCURVE",
"304 752 OFFCURVE",
"341 752 CURVE",
"412 752 LINE",
"412 813 LINE",
"412 813 OFFCURVE",
"356 813 OFFCURVE",
"269 813 CURVE",
"182 813 OFFCURVE",
"92 761 OFFCURVE",
"92 602 CURVE",
"92 442 OFFCURVE",
"93 383 OFFCURVE",
"28 383 CURVE",
"28 317 LINE",
"93 317 OFFCURVE",
"92 258 OFFCURVE",
"92 99 CURVE",
"92 -60 OFFCURVE",
"182 -112 OFFCURVE",
"269 -112 CURVE"
);
}
);
width = 327;
}
);
unicode = 007B;
},
{
glyphname = braceright;
layers = (
{
layerId = "1C2BFDD8-856B-473B-8B37-FA70972360C9";
paths = (
{
closed = 1;
nodes = (
"-85 -112 OFFCURVE",
"-28 -112 OFFCURVE",
"58 -112 CURVE",
"145 -112 OFFCURVE",
"235 -60 OFFCURVE",
"235 99 CURVE",
"235 258 OFFCURVE",
"234 317 OFFCURVE",
"299 317 CURVE",
"299 383 LINE",
"234 383 OFFCURVE",
"235 442 OFFCURVE",
"235 602 CURVE",
"235 761 OFFCURVE",
"145 813 OFFCURVE",
"58 813 CURVE",
"-28 813 OFFCURVE",
"-85 813 OFFCURVE",
"-85 813 CURVE",
"-85 752 LINE",
"-14 752 LINE",
"23 752 OFFCURVE",
"36 731 OFFCURVE",
"36 691 CURVE",
"38 468 OFFCURVE",
"36 712 OFFCURVE",
"38 468 CURVE",
"38 405 OFFCURVE",
"73 351 OFFCURVE",
"145 351 CURVE",
"73 351 OFFCURVE",
"38 296 OFFCURVE",
"38 232 CURVE",
"36 -12 OFFCURVE",
"38 232 OFFCURVE",
"36 9 CURVE",
"36 -31 OFFCURVE",
"23 -51 OFFCURVE",
"-14 -51 CURVE",
"-85 -51 LINE",
"-85 -112 LINE"
);
}
);
width = 327;
}
);
unicode = 007D;
},
{
glyphname = bracketleft;
layers = (
{
layerId = "1C2BFDD8-856B-473B-8B37-FA70972360C9";
paths = (
{
closed = 1;
nodes = (
"384 -112 LINE",
"384 -51 LINE",
"228 -51 LINE",
"228 752 LINE",
"384 752 LINE",
"384 813 LINE",
"28 813 LINE",
"28 -112 LINE"
);
}
);
width = 270;
}
);
leftKerningGroup = H;
unicode = 005B;
},
{
glyphname = bracketright;
layers = (
{
layerId = "1C2BFDD8-856B-473B-8B37-FA70972360C9";
paths = (
{
closed = 1;
nodes = (
"242 -112 LINE",
"242 813 LINE",
"-114 813 LINE",
"-114 752 LINE",
"43 752 LINE",
"43 -51 LINE",
"-114 -51 LINE",
"-114 -112 LINE"
);
}
);
width = 270;
}
);
rightKerningGroup = H;
unicode = 005D;
},
{
glyphname = hyphen;
layers = (
{
layerId = "1C2BFDD8-856B-473B-8B37-FA70972360C9";
paths = (
{
closed = 1;
nodes = (
"491 245 LINE",
"491 458 LINE",
"36 458 LINE",
"36 245 LINE"
);
}
);
width = 526;
}
);
leftKerningGroup = "-";
rightKerningGroup = "-";
unicode = 002D;
},
{
glyphname = endash;
layers = (
{
layerId = "1C2BFDD8-856B-473B-8B37-FA70972360C9";
paths = (
{
closed = 1;
nodes = (
"974 245 LINE",
"974 458 LINE",
"36 458 LINE",
"36 245 LINE"
);
}
);
width = 1010;
}
);
leftKerningGroup = "-";
rightKerningGroup = "-";
unicode = 2013;
},
{
glyphname = emdash;
layers = (
{
layerId = "1C2BFDD8-856B-473B-8B37-FA70972360C9";
paths = (
{
closed = 1;
nodes = (
"1458 245 LINE",
"1458 458 LINE",
"36 458 LINE",
"36 245 LINE"
);
}
);
width = 1493;
}
);
leftKerningGroup = "-";
rightKerningGroup = "-";
unicode = 2014;
},
{
glyphname = underscore;
layers = (
{
layerId = "1C2BFDD8-856B-473B-8B37-FA70972360C9";
paths = (
{
closed = 1;
nodes = (
"960 -213 LINE",
"960 0 LINE",
"21 0 LINE",
"21 -213 LINE"
);
}
);
width = 981;
}
);
leftKerningGroup = _;
rightKerningGroup = _;
unicode = 005F;
},
{
glyphname = quotedblleft;
layers = (
{
layerId = "1C2BFDD8-856B-473B-8B37-FA70972360C9";
paths = (
{
closed = 1;
nodes = (
"466 395 LINE",
"412 700 LINE",
"269 700 LINE",
"269 395 LINE"
);
},
{
closed = 1;
nodes = (
"226 395 LINE",
"172 700 LINE",
"28 700 LINE",
"28 395 LINE"
);
}
);
width = 495;
}
);
unicode = 201C;
},
{
glyphname = quotedblright;
layers = (
{
layerId = "1C2BFDD8-856B-473B-8B37-FA70972360C9";
paths = (
{
closed = 1;
nodes = (
"466 395 LINE",
"466 700 LINE",
"269 700 LINE",
"324 395 LINE"
);
},
{
closed = 1;
nodes = (
"226 395 LINE",
"226 700 LINE",
"28 700 LINE",
"83 395 LINE"
);
}
);
width = 495;
}
);
unicode = 201D;
},
{
glyphname = quoteright;
layers = (
{
layerId = "1C2BFDD8-856B-473B-8B37-FA70972360C9";
paths = (
{
closed = 1;
nodes = (
"226 395 LINE",
"226 700 LINE",
"28 700 LINE",
"83 395 LINE"
);
}
);
width = 255;
}
);
unicode = 2019;
},
{
glyphname = guillemetleft;
layers = (
{
layerId = "1C2BFDD8-856B-473B-8B37-FA70972360C9";
paths = (
{
closed = 1;
nodes = (
"465 66 LINE",
"339 351 LINE",
"465 635 LINE",
"155 635 LINE",
"28 351 LINE",
"155 66 LINE"
);
},
{
closed = 1;
nodes = (
"832 66 LINE",
"706 351 LINE",
"832 635 LINE",
"522 635 LINE",
"396 351 LINE",
"522 66 LINE"
);
}
);
width = 860;
}
);
unicode = 00AB;
},
{
glyphname = quotedbl;
layers = (
{
layerId = "1C2BFDD8-856B-473B-8B37-FA70972360C9";
paths = (
{
closed = 1;
nodes = (
"442 395 LINE",
"466 700 LINE",
"269 700 LINE",
"293 395 LINE"
);
},
{
closed = 1;
nodes = (
"201 395 LINE",
"226 700 LINE",
"28 700 LINE",
"53 395 LINE"
);
}
);
width = 495;
}
);
unicode = 0022;
},
{
glyphname = quotesingle;
layers = (
{
layerId = "1C2BFDD8-856B-473B-8B37-FA70972360C9";
paths = (
{
closed = 1;
nodes = (
"201 395 LINE",
"226 700 LINE",
"28 700 LINE",
"53 395 LINE"
);
}
);
width = 255;
}
);
unicode = 0027;
},
{
glyphname = cent;
layers = (
{
components = (
{
name = C;
}
);
layerId = "1C2BFDD8-856B-473B-8B37-FA70972360C9";
paths = (
{
closed = 1;
nodes = (
"510 665 LINE",
"510 813 LINE",
"311 813 LINE",
"311 665 LINE"
);
},
{
closed = 1;
nodes = (
"510 -112 LINE",
"510 38 LINE",
"311 38 LINE",
"311 -112 LINE"
);
}
);
width = 807;
}
);
leftKerningGroup = C;
rightKerningGroup = C;
unicode = 00A2;
},
{
glyphname = currency;
layers = (
{
layerId = "1C2BFDD8-856B-473B-8B37-FA70972360C9";
paths = (
{
closed = 1;
nodes = (
"472 137 OFFCURVE",
"567 232 OFFCURVE",
"567 351 CURVE",
"567 469 OFFCURVE",
"472 564 OFFCURVE",
"354 564 CURVE",
"237 564 OFFCURVE",
"141 469 OFFCURVE",
"141 351 CURVE",
"141 232 OFFCURVE",
"237 137 OFFCURVE",
"354 137 CURVE"
);
},
{
closed = 1;
nodes = (
"306 181 LINE",
"185 302 LINE",
"71 188 LINE",
"192 68 LINE"
);
},
{
closed = 1;
nodes = (
"318 215 OFFCURVE",
"284 230 OFFCURVE",
"259 255 CURVE",
"233 281 OFFCURVE",
"219 314 OFFCURVE",
"219 351 CURVE",
"219 387 OFFCURVE",
"233 420 OFFCURVE",
"259 446 CURVE",
"284 471 OFFCURVE",
"318 486 OFFCURVE",
"354 486 CURVE",
"390 486 OFFCURVE",
"424 471 OFFCURVE",
"450 446 CURVE",
"475 420 OFFCURVE",
"489 387 OFFCURVE",
"489 351 CURVE",
"489 314 OFFCURVE",
"475 281 OFFCURVE",
"450 255 CURVE",
"424 230 OFFCURVE",
"390 215 OFFCURVE",
"354 215 CURVE"
);
},
{
closed = 1;
nodes = (
"637 188 LINE",
"523 302 LINE",
"402 181 LINE",
"516 68 LINE"
);
},
{
closed = 1;
nodes = (
"306 520 LINE",
"192 634 LINE",
"71 513 LINE",
"185 399 LINE"
);
},
{
closed = 1;
nodes = (
"637 513 LINE",
"516 634 LINE",
"402 520 LINE",
"523 399 LINE"
);
}
);
width = 708;
}
);
unicode = 00A4;
},
{
glyphname = dollar;
layers = (
{
layerId = "1C2BFDD8-856B-473B-8B37-FA70972360C9";
paths = (
{
closed = 1;
nodes = (
"668 -5 OFFCURVE",
"793 95 OFFCURVE",
"793 228 CURVE",
"793 344 OFFCURVE",
"708 408 OFFCURVE",
"556 449 CURVE",
"415 486 LINE",
"315 513 OFFCURVE",
"295 538 OFFCURVE",
"295 570 CURVE",
"295 614 OFFCURVE",
"340 643 OFFCURVE",
"425 643 CURVE",
"606 643 OFFCURVE",
"717 550 OFFCURVE",
"717 550 CURVE",
"751 595 LINE",
"751 595 OFFCURVE",
"634 706 OFFCURVE",
"370 706 CURVE",
"144 706 OFFCURVE",
"21 602 OFFCURVE",
"21 474 CURVE",
"21 369 OFFCURVE",
"102 292 OFFCURVE",
"242 250 CURVE",
"372 212 LINE",
"447 191 OFFCURVE",
"479 162 OFFCURVE",
"479 128 CURVE",
"479 87 OFFCURVE",
"439 63 OFFCURVE",
"359 63 CURVE",
"174 63 OFFCURVE",
"58 162 OFFCURVE",
"58 162 CURVE",
"25 117 LINE",
"25 117 OFFCURVE",
"151 -5 OFFCURVE",
"430 -5 CURVE"
);
},
{
closed = 1;
nodes = (
"360 -112 LINE",
"360 321 LINE",
"161 321 LINE",
"161 -112 LINE"
);
},
{
closed = 1;
nodes = (
"641 -112 LINE",
"641 50 LINE",
"442 50 LINE",
"442 -112 LINE"
);
},
{
closed = 1;
nodes = (
"353 645 LINE",
"353 813 LINE",
"154 813 LINE",
"154 645 LINE"
);
},
{
closed = 1;
nodes = (
"640 371 LINE",
"640 813 LINE",
"441 813 LINE",
"441 371 LINE"
);
}
);
width = 815;
}
);
leftKerningGroup = S;
rightKerningGroup = S;
unicode = 0024;
},
{
glyphname = euro;
layers = (
{
layerId = "1C2BFDD8-856B-473B-8B37-FA70972360C9";
paths = (
{
closed = 1;
nodes = (
"624 -5 OFFCURVE",
"713 1 OFFCURVE",
"779 90 CURVE",
"813 135 OFFCURVE",
"840 196 OFFCURVE",
"850 274 CURVE",
"788 274 LINE",
"773 173 OFFCURVE",
"721 65 OFFCURVE",
"612 65 CURVE",
"561 65 OFFCURVE",
"523 97 OFFCURVE",
"498 162 CURVE",
"479 211 OFFCURVE",
"470 274 OFFCURVE",
"470 351 CURVE",
"470 397 OFFCURVE",
"474 440 OFFCURVE",
"481 480 CURVE",
"491 527 OFFCURVE",
"506 563 OFFCURVE",
"525 589 CURVE",
"547 620 OFFCURVE",
"577 636 OFFCURVE",
"612 636 CURVE",
"737 636 OFFCURVE",
"776 501 OFFCURVE",
"782 427 CURVE",
"839 427 LINE",
"835 491 OFFCURVE",
"813 574 OFFCURVE",
"764 630 CURVE",
"704 698 OFFCURVE",
"609 706 OFFCURVE",
"491 706 CURVE",
"359 706 OFFCURVE",
"266 695 OFFCURVE",
"186 614 CURVE",
"127 555 OFFCURVE",
"100 466 OFFCURVE",
"100 351 CURVE",
"100 239 OFFCURVE",
"132 151 OFFCURVE",
"196 87 CURVE",
"260 23 OFFCURVE",
"343 -5 OFFCURVE",
"491 -5 CURVE"
);
},
{
closed = 1;
nodes = (
"615 268 LINE",
"633 328 LINE",
"28 328 LINE",
"28 268 LINE"
);
},
{
closed = 1;
nodes = (
"647 373 LINE",
"665 433 LINE",
"28 433 LINE",
"28 373 LINE"
);
}
);
width = 878;
}
);
leftKerningGroup = C;
rightKerningGroup = C;
unicode = 20AC;
},
{
glyphname = sterling;
layers = (
{
layerId = "1C2BFDD8-856B-473B-8B37-FA70972360C9";
paths = (
{
closed = 1;
nodes = (
"341 0 LINE",
"341 1 OFFCURVE",
"351 26 OFFCURVE",
"368 78 CURVE SMOOTH",
"390 142 OFFCURVE",
"426 264 OFFCURVE",
"388 396 CURVE SMOOTH",
"371 454 OFFCURVE",
"355 508 OFFCURVE",
"358 549 CURVE SMOOTH",
"362 603 OFFCURVE",
"396 637 OFFCURVE",
"457 637 CURVE SMOOTH",
"522 637 OFFCURVE",
"565 604 OFFCURVE",
"593 567 CURVE",
"648 594 LINE",
"599 663 OFFCURVE",
"516 706 OFFCURVE",
"385 706 CURVE SMOOTH",
"129 706 OFFCURVE",
"60 559 OFFCURVE",
"93 396 CURVE SMOOTH",
"120 263 OFFCURVE",
"105 201 OFFCURVE",
"64 78 CURVE SMOOTH",
"46 26 OFFCURVE",
"37 0 OFFCURVE",
"36 0 CURVE"
);
},
{
closed = 1;
nodes = (
"680 0 LINE",
"680 60 LINE",
"164 60 LINE",
"164 0 LINE"
);
},
{
closed = 1;
nodes = (
"573 322 LINE",
"573 382 LINE",
"36 382 LINE",
"36 322 LINE"
);
}
);
width = 715;
}
);
unicode = 00A3;
},
{
glyphname = yen;
layers = (
{
layerId = "1C2BFDD8-856B-473B-8B37-FA70972360C9";
paths = (
{
closed = 1;
nodes = (
"566 0 LINE",
"566 284 LINE",
"723 700 LINE",
"646 700 LINE",
"525 376 LINE",
"381 700 LINE",
"28 700 LINE",
"213 284 LINE",
"213 0 LINE"
);
},
{
closed = 1;
nodes = (
"718 179 LINE",
"718 239 LINE",
"50 239 LINE",
"50 179 LINE"
);
},
{
closed = 1;
nodes = (
"718 284 LINE",
"718 344 LINE",
"50 344 LINE",
"50 284 LINE"
);
}
);
width = 752;
}
);
leftKerningGroup = H;
rightKerningGroup = H;
unicode = 00A5;
},
{
glyphname = cent.ss01;
layers = (
{
components = (
{
name = C;
}
);
layerId = "1C2BFDD8-856B-473B-8B37-FA70972360C9";
paths = (
{
closed = 1;
nodes = (
"440 665 LINE",
"440 813 LINE",
"380 813 LINE",
"380 665 LINE"
);
},
{
closed = 1;
nodes = (
"440 -112 LINE",
"440 38 LINE",
"380 38 LINE",
"380 -112 LINE"
);
}
);
width = 807;
}
);
},
{
glyphname = dollar.ss01;
layers = (
{
layerId = "1C2BFDD8-856B-473B-8B37-FA70972360C9";
paths = (
{
closed = 1;
nodes = (
"668 -5 OFFCURVE",
"793 95 OFFCURVE",
"793 228 CURVE",
"793 344 OFFCURVE",
"708 408 OFFCURVE",
"556 449 CURVE",
"415 486 LINE",
"315 513 OFFCURVE",
"295 538 OFFCURVE",
"295 570 CURVE",
"295 614 OFFCURVE",
"340 643 OFFCURVE",
"425 643 CURVE",
"606 643 OFFCURVE",
"717 550 OFFCURVE",
"717 550 CURVE",
"751 595 LINE",
"751 595 OFFCURVE",
"634 706 OFFCURVE",
"370 706 CURVE",
"144 706 OFFCURVE",
"21 602 OFFCURVE",
"21 474 CURVE",
"21 369 OFFCURVE",
"102 292 OFFCURVE",
"242 250 CURVE",
"372 212 LINE",
"447 191 OFFCURVE",
"479 162 OFFCURVE",
"479 128 CURVE",
"479 87 OFFCURVE",
"439 63 OFFCURVE",
"359 63 CURVE",
"174 63 OFFCURVE",
"58 162 OFFCURVE",
"58 162 CURVE",
"25 117 LINE",
"25 117 OFFCURVE",
"151 -5 OFFCURVE",
"430 -5 CURVE"
);
},
{
closed = 1;
nodes = (
"302 -112 LINE",
"302 321 LINE",
"242 321 LINE",
"242 -112 LINE"
);
},
{
closed = 1;
nodes = (
"560 -112 LINE",
"560 50 LINE",
"500 50 LINE",
"500 -112 LINE"
);
},
{
closed = 1;
nodes = (
"295 645 LINE",
"295 813 LINE",
"235 813 LINE",
"235 645 LINE"
);
},
{
closed = 1;
nodes = (
"558 371 LINE",
"558 813 LINE",
"498 813 LINE",
"498 371 LINE"
);
}
);
width = 815;
}
);
leftKerningGroup = S;
rightKerningGroup = S;
},
{
glyphname = divisionslash;
layers = (
{
layerId = "1C2BFDD8-856B-473B-8B37-FA70972360C9";
paths = (
{
closed = 1;
nodes = (
"227 -112 LINE",
"576 813 LINE",
"365 813 LINE",
"21 -112 LINE"
);
}
);
width = 597;
}
);
leftKerningGroup = A;
rightKerningGroup = V;
unicode = 2215;
},
{
glyphname = plus;
layers = (
{
layerId = "1C2BFDD8-856B-473B-8B37-FA70972360C9";
paths = (
{
closed = 1;
nodes = (
"462 66 LINE",
"462 635 LINE",
"249 635 LINE",
"249 66 LINE"
);
},
{
closed = 1;
nodes = (
"640 244 LINE",
"640 457 LINE",
"71 457 LINE",
"71 244 LINE"
);
}
);
width = 711;
}
);
leftKerningGroup = "-";
rightKerningGroup = "-";
unicode = 002B;
},
{
glyphname = minus;
layers = (
{
layerId = "1C2BFDD8-856B-473B-8B37-FA70972360C9";
paths = (
{
closed = 1;
nodes = (
"640 244 LINE",
"640 457 LINE",
"71 457 LINE",
"71 244 LINE"
);
}
);
width = 711;
}
);
leftKerningGroup = "-";
rightKerningGroup = "-";
unicode = 2212;
},
{
glyphname = multiply;
layers = (
{
layerId = "1C2BFDD8-856B-473B-8B37-FA70972360C9";
paths = (
{
closed = 1;
nodes = (
"594 210 LINE",
"192 612 LINE",
"71 491 LINE",
"474 89 LINE"
);
},
{
closed = 1;
nodes = (
"594 491 LINE",
"474 612 LINE",
"71 210 LINE",
"192 89 LINE"
);
}
);
width = 665;
}
);
leftKerningGroup = "-";
rightKerningGroup = "-";
unicode = 00D7;
},
{
glyphname = divide;
layers = (
{
layerId = "1C2BFDD8-856B-473B-8B37-FA70972360C9";
paths = (
{
closed = 1;
nodes = (
"640 265 LINE",
"640 436 LINE",
"71 436 LINE",
"71 265 LINE"
);
},
{
closed = 1;
nodes = (
"402 62 OFFCURVE",
"447 90 OFFCURVE",
"447 148 CURVE",
"447 206 OFFCURVE",
"402 234 OFFCURVE",
"356 234 CURVE",
"309 234 OFFCURVE",
"265 206 OFFCURVE",
"265 148 CURVE",
"265 90 OFFCURVE",
"309 62 OFFCURVE",
"356 62 CURVE"
);
},
{
closed = 1;
nodes = (
"402 467 OFFCURVE",
"447 495 OFFCURVE",
"447 553 CURVE",
"447 611 OFFCURVE",
"402 639 OFFCURVE",
"356 639 CURVE",
"309 639 OFFCURVE",
"265 611 OFFCURVE",
"265 553 CURVE",
"265 495 OFFCURVE",
"309 467 OFFCURVE",
"356 467 CURVE"
);
}
);
width = 711;
}
);
leftKerningGroup = "-";
rightKerningGroup = "-";
unicode = 00F7;
},
{
glyphname = equal;
layers = (
{
layerId = "1C2BFDD8-856B-473B-8B37-FA70972360C9";
paths = (
{
closed = 1;
nodes = (
"711 400 LINE",
"711 599 LINE",
"71 599 LINE",
"71 400 LINE"
);
},
{
closed = 1;
nodes = (
"711 103 LINE",
"711 302 LINE",
"71 302 LINE",
"71 103 LINE"
);
}
);
width = 782;
}
);
leftKerningGroup = "-";
rightKerningGroup = "-";
unicode = 003D;
},
{
glyphname = greater;
layers = (
{
layerId = "1C2BFDD8-856B-473B-8B37-FA70972360C9";
paths = (
{
closed = 1;
nodes = (
"629 257 LINE",
"629 444 LINE",
"575 455 LINE",
"516 450 LINE",
"71 306 LINE",
"71 66 LINE"
);
},
{
closed = 1;
nodes = (
"629 444 LINE",
"71 635 LINE",
"71 562 LINE",
"629 370 LINE"
);
}
);
width = 700;
}
);
unicode = 003E;
},
{
glyphname = less;
layers = (
{
layerId = "1C2BFDD8-856B-473B-8B37-FA70972360C9";
paths = (
{
closed = 1;
nodes = (
"184 251 LINE",
"629 395 LINE",
"629 635 LINE",
"71 444 LINE",
"71 257 LINE",
"124 246 LINE"
);
},
{
closed = 1;
nodes = (
"629 139 LINE",
"71 330 LINE",
"71 257 LINE",
"629 66 LINE"
);
}
);
width = 700;
}
);
unicode = 003C;
},
{
glyphname = greaterequal;
layers = (
{
layerId = "1C2BFDD8-856B-473B-8B37-FA70972360C9";
paths = (
{
closed = 1;
nodes = (
"526 34 LINE",
"526 183 LINE",
"71 183 LINE",
"71 34 LINE"
);
},
{
closed = 1;
nodes = (
"526 383 LINE",
"526 539 LINE",
"71 695 LINE",
"71 498 LINE",
"370 402 LINE",
"71 299 LINE",
"71 226 LINE"
);
}
);
width = 597;
}
);
leftKerningGroup = H;
rightKerningGroup = H;
unicode = 2265;
},
{
glyphname = lessequal;
layers = (
{
layerId = "1C2BFDD8-856B-473B-8B37-FA70972360C9";
paths = (
{
closed = 1;
nodes = (
"526 299 LINE",
"228 402 LINE",
"526 498 LINE",
"526 695 LINE",
"71 539 LINE",
"71 383 LINE",
"526 226 LINE"
);
},
{
closed = 1;
nodes = (
"526 34 LINE",
"526 183 LINE",
"71 183 LINE",
"71 34 LINE"
);
}
);
width = 597;
}
);
leftKerningGroup = H;
rightKerningGroup = H;
unicode = 2264;
},
{
glyphname = plusminus;
layers = (
{
layerId = "1C2BFDD8-856B-473B-8B37-FA70972360C9";
paths = (
{
closed = 1;
nodes = (
"526 383 LINE",
"526 539 LINE",
"71 539 LINE",
"71 383 LINE"
);
},
{
closed = 1;
nodes = (
"526 34 LINE",
"526 183 LINE",
"71 183 LINE",
"71 34 LINE"
);
},
{
closed = 1;
nodes = (
"377 240 LINE",
"377 681 LINE",
"220 681 LINE",
"220 240 LINE"
);
}
);
width = 597;
}
);
leftKerningGroup = H;
rightKerningGroup = H;
unicode = 00B1;
},
{
glyphname = asciitilde;
layers = (
{
layerId = "1C2BFDD8-856B-473B-8B37-FA70972360C9";
paths = (
{
closed = 1;
nodes = (
"661 205 OFFCURVE",
"717 262 OFFCURVE",
"717 262 CURVE",
"717 461 LINE",
"717 461 OFFCURVE",
"661 418 OFFCURVE",
"547 418 CURVE",
"419 418 OFFCURVE",
"334 498 OFFCURVE",
"206 498 CURVE",
"92 498 OFFCURVE",
"36 441 OFFCURVE",
"36 441 CURVE",
"36 242 LINE",
"36 242 OFFCURVE",
"92 284 OFFCURVE",
"206 284 CURVE",
"334 284 OFFCURVE",
"419 205 OFFCURVE",
"547 205 CURVE"
);
}
);
width = 753;
}
);
leftKerningGroup = "-";
rightKerningGroup = "-";
unicode = 007E;
},
{
glyphname = logicalnot;
layers = (
{
layerId = "1C2BFDD8-856B-473B-8B37-FA70972360C9";
paths = (
{
closed = 1;
nodes = (
"640 245 LINE",
"640 458 LINE",
"71 458 LINE",
"71 245 LINE"
);
},
{
closed = 1;
nodes = (
"640 67 LINE",
"640 458 LINE",
"427 458 LINE",
"427 67 LINE"
);
}
);
width = 711;
}
);
leftKerningGroup = "-";
rightKerningGroup = H;
unicode = 00AC;
},
{
glyphname = asciicircum;
layers = (
{
layerId = "1C2BFDD8-856B-473B-8B37-FA70972360C9";
paths = (
{
closed = 1;
nodes = (
"267 245 LINE",
"385 608 LINE",
"389 657 LINE",
"380 700 LINE",
"184 700 LINE",
"28 245 LINE"
);
},
{
closed = 1;
nodes = (
"540 245 LINE",
"383 700 LINE",
"311 700 LINE",
"466 245 LINE"
);
}
);
width = 568;
}
);
unicode = 005E;
},
{
glyphname = micro;
layers = (
{
anchors = (
{
name = top;
position = "{364, 700}";
}
);
layerId = "1C2BFDD8-856B-473B-8B37-FA70972360C9";
paths = (
{
closed = 1;
nodes = (
"592 -5 OFFCURVE",
"700 37 OFFCURVE",
"700 210 CURVE",
"700 210 OFFCURVE",
"700 700 OFFCURVE",
"700 700 CURVE",
"641 700 LINE",
"641 210 LINE",
"641 105 OFFCURVE",
"589 74 OFFCURVE",
"525 74 CURVE",
"461 74 OFFCURVE",
"410 110 OFFCURVE",
"410 210 CURVE",
"410 700 LINE",
"28 700 LINE",
"28 210 LINE",
"28 69 OFFCURVE",
"115 -5 OFFCURVE",
"364 -5 CURVE"
);
},
{
closed = 1;
nodes = (
"87 -64 LINE",
"87 376 LINE",
"28 376 LINE",
"28 -64 LINE"
);
}
);
width = 728;
}
);
leftKerningGroup = U;
rightKerningGroup = U;
unicode = 00B5;
},
{
glyphname = percent;
layers = (
{
components = (
{
name = fraction;
transform = "{1, 0, 0, 1, 383, 0}";
}
);
layerId = "1C2BFDD8-856B-473B-8B37-FA70972360C9";
paths = (
{
closed = 1;
nodes = (
"476 269 OFFCURVE",
"604 343 OFFCURVE",
"604 484 CURVE",
"604 625 OFFCURVE",
"476 700 OFFCURVE",
"316 700 CURVE",
"158 700 OFFCURVE",
"28 625 OFFCURVE",
"28 484 CURVE",
"28 343 OFFCURVE",
"158 269 OFFCURVE",
"316 269 CURVE"
);
},
{
closed = 1;
nodes = (
"265 328 OFFCURVE",
"252 382 OFFCURVE",
"252 484 CURVE",
"252 587 OFFCURVE",
"265 641 OFFCURVE",
"316 641 CURVE",
"368 641 OFFCURVE",
"380 587 OFFCURVE",
"380 484 CURVE",
"380 382 OFFCURVE",
"368 328 OFFCURVE",
"316 328 CURVE"
);
},
{
closed = 1;
nodes = (
"928 641 LINE",
"928 700 LINE",
"316 700 LINE",
"316 662 LINE",
"406 641 LINE"
);
},
{
closed = 1;
nodes = (
"1251 0 OFFCURVE",
"1379 74 OFFCURVE",
"1379 216 CURVE",
"1379 356 OFFCURVE",
"1251 432 OFFCURVE",
"1091 432 CURVE",
"933 432 OFFCURVE",
"803 356 OFFCURVE",
"803 216 CURVE",
"803 74 OFFCURVE",
"933 0 OFFCURVE",
"1091 0 CURVE"
);
},
{
closed = 1;
nodes = (
"1040 59 OFFCURVE",
"1027 113 OFFCURVE",
"1027 216 CURVE",
"1027 319 OFFCURVE",
"1040 373 OFFCURVE",
"1091 373 CURVE",
"1143 373 OFFCURVE",
"1155 319 OFFCURVE",
"1155 216 CURVE",
"1155 113 OFFCURVE",
"1143 59 OFFCURVE",
"1091 59 CURVE"
);
}
);
width = 1408;
}
);
unicode = 0025;
},
{
glyphname = asciitilde.ss01;
layers = (
{
layerId = "1C2BFDD8-856B-473B-8B37-FA70972360C9";
paths = (
{
closed = 1;
nodes = (
"405 241 LINE",
"730 67 LINE",
"1056 242 LINE",
"1433 67 LINE",
"1433 264 LINE",
"1234 351 LINE",
"1433 438 LINE",
"1433 636 LINE",
"1056 461 LINE",
"730 636 LINE",
"405 461 LINE",
"28 636 LINE",
"28 438 LINE",
"228 351 LINE",
"28 264 LINE",
"28 67 LINE"
);
}
);
width = 1462;
}
);
},
{
glyphname = rightArrow;
layers = (
{
layerId = "1C2BFDD8-856B-473B-8B37-FA70972360C9";
paths = (
{
closed = 1;
nodes = (
"2026 351 LINE",
"1458 636 LINE",
"1458 67 LINE"
);
},
{
closed = 1;
nodes = (
"1458 245 LINE",
"1458 458 LINE",
"36 458 LINE",
"36 245 LINE"
);
}
);
width = 2055;
}
);
unicode = 2192;
},
{
glyphname = leftArrow;
layers = (
{
layerId = "1C2BFDD8-856B-473B-8B37-FA70972360C9";
paths = (
{
closed = 1;
nodes = (
"597 636 LINE",
"28 351 LINE",
"597 67 LINE"
);
},
{
closed = 1;
nodes = (
"2019 458 LINE",
"597 458 LINE",
"597 245 LINE",
"2019 245 LINE"
);
}
);
width = 2055;
}
);
unicode = 2190;
},
{
glyphname = at;
layers = (
{
layerId = "1C2BFDD8-856B-473B-8B37-FA70972360C9";
paths = (
{
closed = 1;
nodes = (
"428 -5 OFFCURVE",
"469 3 OFFCURVE",
"508 17 CURVE",
"476 89 LINE",
"447 79 OFFCURVE",
"417 73 OFFCURVE",
"384 73 CURVE",
"231 73 OFFCURVE",
"107 198 OFFCURVE",
"107 351 CURVE",
"107 503 OFFCURVE",
"231 628 OFFCURVE",
"384 628 CURVE",
"538 628 OFFCURVE",
"661 503 OFFCURVE",
"661 351 CURVE",
"661 332 OFFCURVE",
"660 314 OFFCURVE",
"656 297 CURVE",
"540 297 LINE",
"446 510 LINE",
"324 510 LINE",
"215 219 LINE",
"261 219 LINE",
"289 294 LINE",
"384 294 LINE",
"417 219 LINE",
"715 219 LINE",
"731 260 OFFCURVE",
"739 304 OFFCURVE",
"739 351 CURVE",
"739 547 OFFCURVE",
"580 706 OFFCURVE",
"384 706 CURVE",
"188 706 OFFCURVE",
"28 547 OFFCURVE",
"28 351 CURVE",
"28 154 OFFCURVE",
"188 -5 OFFCURVE",
"384 -5 CURVE"
);
},
{
closed = 1;
nodes = (
"332 408 LINE",
"365 336 LINE",
"305 336 LINE"
);
}
);
width = 768;
}
);
leftKerningGroup = "0";
rightKerningGroup = "0";
unicode = 0040;
},
{
glyphname = ampersand;
layers = (
{
layerId = "1C2BFDD8-856B-473B-8B37-FA70972360C9";
paths = (
{
closed = 1;
nodes = (
"904 -5 OFFCURVE",
"1012 124 OFFCURVE",
"1012 447 CURVE",
"727 447 LINE",
"727 128 OFFCURVE",
"536 63 OFFCURVE",
"447 63 CURVE",
"357 63 OFFCURVE",
"322 107 OFFCURVE",
"322 226 CURVE",
"322 360 OFFCURVE",
"360 388 OFFCURVE",
"447 388 CURVE",
"380 449 LINE",
"177 449 OFFCURVE",
"36 398 OFFCURVE",
"36 233 CURVE",
"36 44 OFFCURVE",
"191 -5 OFFCURVE",
"518 -5 CURVE"
);
},
{
closed = 1;
nodes = (
"828 -64 LINE",
"612 470 LINE SMOOTH",
"578 553 OFFCURVE",
"533 642 OFFCURVE",
"610 642 CURVE SMOOTH",
"693 642 OFFCURVE",
"715 555 OFFCURVE",
"715 555 CURVE",
"769 555 LINE",
"769 555 OFFCURVE",
"749 706 OFFCURVE",
"533 706 CURVE SMOOTH",
"376 706 OFFCURVE",
"208 648 OFFCURVE",
"292 437 CURVE SMOOTH",
"447 44 LINE",
"474 -23 OFFCURVE",
"559 -64 OFFCURVE",
"637 -64 CURVE SMOOTH"
);
}
);
width = 1048;
}
);
leftKerningGroup = O;
rightKerningGroup = O;
unicode = 0026;
},
{
glyphname = paragraph;
layers = (
{
layerId = "1C2BFDD8-856B-473B-8B37-FA70972360C9";
paths = (
{
closed = 1;
nodes = (
"674 -112 LINE",
"674 812 LINE",
"281 812 LINE",
"144 812 OFFCURVE",
"28 716 OFFCURVE",
"28 570 CURVE",
"28 423 OFFCURVE",
"142 328 OFFCURVE",
"279 328 CURVE",
"368 328 LINE",
"368 -112 LINE"
);
},
{
closed = 1;
nodes = (
"930 -112 LINE",
"930 812 LINE",
"731 812 LINE",
"731 -112 LINE"
);
}
);
width = 958;
}
);
leftKerningGroup = V;
rightKerningGroup = H;
unicode = 00B6;
},
{
glyphname = section;
layers = (
{
layerId = "1C2BFDD8-856B-473B-8B37-FA70972360C9";
paths = (
{
closed = 1;
nodes = (
"747 -117 OFFCURVE",
"858 -25 OFFCURVE",
"858 108 CURVE",
"858 234 OFFCURVE",
"752 240 OFFCURVE",
"636 269 CURVE",
"246 350 LINE",
"200 361 OFFCURVE",
"172 392 OFFCURVE",
"174 429 CURVE",
"180 506 OFFCURVE",
"358 534 OFFCURVE",
"447 534 CURVE",
"419 579 LINE",
"179 579 OFFCURVE",
"28 493 OFFCURVE",
"28 347 CURVE",
"28 238 OFFCURVE",
"116 166 OFFCURVE",
"225 137 CURVE",
"442 90 LINE",
"485 79 OFFCURVE",
"513 49 OFFCURVE",
"508 11 CURVE",
"503 -29 OFFCURVE",
"479 -54 OFFCURVE",
"388 -54 CURVE",
"228 -54 OFFCURVE",
"67 3 OFFCURVE",
"67 3 CURVE",
"50 -53 LINE",
"50 -53 OFFCURVE",
"228 -117 OFFCURVE",
"474 -117 CURVE"
);
},
{
closed = 1;
nodes = (
"712 122 OFFCURVE",
"865 208 OFFCURVE",
"865 354 CURVE",
"865 466 OFFCURVE",
"759 530 OFFCURVE",
"643 557 CURVE",
"395 610 LINE",
"349 621 OFFCURVE",
"321 653 OFFCURVE",
"324 690 CURVE",
"327 739 OFFCURVE",
"365 759 OFFCURVE",
"454 759 CURVE",
"592 759 OFFCURVE",
"721 712 OFFCURVE",
"721 712 CURVE",
"737 764 LINE",
"737 764 OFFCURVE",
"598 818 OFFCURVE",
"384 818 CURVE",
"144 818 OFFCURVE",
"36 725 OFFCURVE",
"36 593 CURVE",
"36 471 OFFCURVE",
"123 455 OFFCURVE",
"232 426 CURVE",
"627 343 LINE",
"670 332 OFFCURVE",
"697 303 OFFCURVE",
"693 264 CURVE",
"684 186 OFFCURVE",
"486 199 OFFCURVE",
"395 199 CURVE",
"439 122 LINE"
);
}
);
width = 894;
}
);
leftKerningGroup = H;
rightKerningGroup = H;
unicode = 00A7;
},
{
glyphname = copyright;
layers = (
{
layerId = "1C2BFDD8-856B-473B-8B37-FA70972360C9";
paths = (
{
closed = 1;
nodes = (
"580 -5 OFFCURVE",
"739 154 OFFCURVE",
"739 351 CURVE",
"739 547 OFFCURVE",
"580 706 OFFCURVE",
"384 706 CURVE",
"188 706 OFFCURVE",
"28 547 OFFCURVE",
"28 351 CURVE",
"28 154 OFFCURVE",
"188 -5 OFFCURVE",
"384 -5 CURVE"
);
},
{
closed = 1;
nodes = (
"231 73 OFFCURVE",
"107 198 OFFCURVE",
"107 351 CURVE",
"107 503 OFFCURVE",
"231 628 OFFCURVE",
"384 628 CURVE",
"537 628 OFFCURVE",
"661 503 OFFCURVE",
"661 351 CURVE",
"661 198 OFFCURVE",
"537 73 OFFCURVE",
"384 73 CURVE"
);
},
{
closed = 1;
nodes = (
"456 179 OFFCURVE",
"498 183 OFFCURVE",
"530 225 CURVE",
"547 247 OFFCURVE",
"560 276 OFFCURVE",
"565 314 CURVE",
"518 314 LINE",
"510 265 OFFCURVE",
"488 226 OFFCURVE",
"450 226 CURVE",
"384 226 OFFCURVE",
"382 314 OFFCURVE",
"382 351 CURVE",
"382 373 OFFCURVE",
"384 476 OFFCURVE",
"450 476 CURVE",
"495 476 OFFCURVE",
"512 423 OFFCURVE",
"515 387 CURVE",
"560 387 LINE",
"557 418 OFFCURVE",
"547 458 OFFCURVE",
"523 485 CURVE",
"494 518 OFFCURVE",
"449 522 OFFCURVE",
"392 522 CURVE",
"328 522 OFFCURVE",
"284 516 OFFCURVE",
"245 478 CURVE",
"216 449 OFFCURVE",
"203 406 OFFCURVE",
"203 351 CURVE",
"203 296 OFFCURVE",
"219 255 OFFCURVE",
"250 224 CURVE",
"281 193 OFFCURVE",
"321 179 OFFCURVE",
"392 179 CURVE"
);
}
);
width = 768;
}
);
leftKerningGroup = "0";
rightKerningGroup = "0";
unicode = 00A9;
},
{
glyphname = registered;
layers = (
{
layerId = "1C2BFDD8-856B-473B-8B37-FA70972360C9";
paths = (
{
closed = 1;
nodes = (
"580 -5 OFFCURVE",
"739 154 OFFCURVE",
"739 351 CURVE",
"739 547 OFFCURVE",
"580 706 OFFCURVE",
"384 706 CURVE",
"188 706 OFFCURVE",
"28 547 OFFCURVE",
"28 351 CURVE",
"28 154 OFFCURVE",
"188 -5 OFFCURVE",
"384 -5 CURVE"
);
},
{
closed = 1;
nodes = (
"231 73 OFFCURVE",
"107 198 OFFCURVE",
"107 351 CURVE",
"107 503 OFFCURVE",
"231 628 OFFCURVE",
"384 628 CURVE",
"538 628 OFFCURVE",
"661 503 OFFCURVE",
"661 351 CURVE",
"661 198 OFFCURVE",
"538 73 OFFCURVE",
"384 73 CURVE"
);
},
{
closed = 1;
nodes = (
"348 198 LINE",
"348 314 LINE",
"360 314 LINE",
"366 313 OFFCURVE",
"373 312 OFFCURVE",
"380 311 CURVE",
"387 310 OFFCURVE",
"394 307 OFFCURVE",
"400 304 CURVE",
"405 301 OFFCURVE",
"410 296 OFFCURVE",
"413 291 CURVE",
"417 286 OFFCURVE",
"418 279 OFFCURVE",
"418 269 CURVE",
"418 245 LINE",
"418 198 LINE",
"561 198 LINE",
"561 262 LINE",
"561 293 OFFCURVE",
"539 319 OFFCURVE",
"509 327 CURVE",
"544 340 OFFCURVE",
"569 373 OFFCURVE",
"569 412 CURVE",
"569 463 OFFCURVE",
"528 503 OFFCURVE",
"478 503 CURVE",
"207 503 LINE",
"207 198 LINE"
);
},
{
closed = 1;
nodes = (
"348 464 LINE",
"363 464 LINE",
"394 464 OFFCURVE",
"419 439 OFFCURVE",
"419 408 CURVE",
"419 377 OFFCURVE",
"394 352 OFFCURVE",
"363 352 CURVE",
"348 351 LINE"
);
}
);
width = 768;
}
);
leftKerningGroup = "0";
rightKerningGroup = "0";
unicode = 00AE;
},
{
glyphname = published;
layers = (
{
layerId = "1C2BFDD8-856B-473B-8B37-FA70972360C9";
paths = (
{
closed = 1;
nodes = (
"580 -5 OFFCURVE",
"739 154 OFFCURVE",
"739 351 CURVE",
"739 547 OFFCURVE",
"580 706 OFFCURVE",
"384 706 CURVE",
"188 706 OFFCURVE",
"28 547 OFFCURVE",
"28 351 CURVE",
"28 154 OFFCURVE",
"188 -5 OFFCURVE",
"384 -5 CURVE"
);
},
{
closed = 1;
nodes = (
"231 73 OFFCURVE",
"107 198 OFFCURVE",
"107 351 CURVE",
"107 503 OFFCURVE",
"231 628 OFFCURVE",
"384 628 CURVE",
"537 628 OFFCURVE",
"661 503 OFFCURVE",
"661 351 CURVE",
"661 198 OFFCURVE",
"537 73 OFFCURVE",
"384 73 CURVE"
);
},
{
closed = 1;
nodes = (
"356 198 LINE",
"356 312 LINE",
"481 312 LINE",
"533 312 OFFCURVE",
"576 355 OFFCURVE",
"576 407 CURVE",
"576 461 OFFCURVE",
"533 503 OFFCURVE",
"481 503 CURVE",
"215 503 LINE",
"215 198 LINE"
);
},
{
closed = 1;
nodes = (
"356 464 LINE",
"370 464 LINE",
"402 464 OFFCURVE",
"427 439 OFFCURVE",
"427 408 CURVE",
"427 377 OFFCURVE",
"402 352 OFFCURVE",
"370 352 CURVE",
"356 351 LINE"
);
}
);
width = 768;
}
);
leftKerningGroup = "0";
rightKerningGroup = "0";
unicode = 2117;
},
{
glyphname = trademark;
layers = (
{
layerId = "1C2BFDD8-856B-473B-8B37-FA70972360C9";
paths = (
{
closed = 1;
nodes = (
"498 395 LINE",
"498 552 LINE",
"567 395 LINE",
"634 395 LINE",
"698 562 LINE",
"698 395 LINE",
"838 395 LINE",
"838 700 LINE",
"694 700 LINE",
"643 573 LINE",
"579 700 LINE",
"439 700 LINE",
"439 395 LINE"
);
},
{
closed = 1;
nodes = (
"300 395 LINE",
"300 641 LINE",
"411 641 LINE",
"411 700 LINE",
"28 700 LINE",
"28 641 LINE",
"139 641 LINE",
"139 395 LINE"
);
}
);
width = 867;
}
);
rightKerningGroup = H;
unicode = 2122;
},
{
glyphname = degree;
layers = (
{
layerId = "1C2BFDD8-856B-473B-8B37-FA70972360C9";
paths = (
{
closed = 1;
nodes = (
"504 269 OFFCURVE",
"633 343 OFFCURVE",
"633 485 CURVE",
"633 625 OFFCURVE",
"504 700 OFFCURVE",
"345 700 CURVE",
"186 700 OFFCURVE",
"57 625 OFFCURVE",
"57 485 CURVE",
"57 343 OFFCURVE",
"186 269 OFFCURVE",
"345 269 CURVE"
);
},
{
closed = 1;
nodes = (
"294 328 OFFCURVE",
"281 382 OFFCURVE",
"281 485 CURVE",
"281 587 OFFCURVE",
"294 641 OFFCURVE",
"345 641 CURVE",
"397 641 OFFCURVE",
"409 587 OFFCURVE",
"409 485 CURVE",
"409 382 OFFCURVE",
"397 328 OFFCURVE",
"345 328 CURVE"
);
}
);
width = 690;
}
);
leftKerningGroup = O;
rightKerningGroup = O;
unicode = 00B0;
},
{
glyphname = bar;
layers = (
{
layerId = "1C2BFDD8-856B-473B-8B37-FA70972360C9";
paths = (
{
closed = 1;
nodes = (
"256 -112 LINE",
"256 813 LINE",
"57 813 LINE",
"57 -112 LINE"
);
}
);
width = 313;
}
);
leftKerningGroup = H;
rightKerningGroup = H;
unicode = 007C;
},
{
glyphname = brokenbar;
layers = (
{
layerId = "1C2BFDD8-856B-473B-8B37-FA70972360C9";
paths = (
{
closed = 1;
nodes = (
"256 426 LINE",
"256 813 LINE",
"57 813 LINE",
"57 426 LINE"
);
},
{
closed = 1;
nodes = (
"256 -110 LINE",
"256 277 LINE",
"57 277 LINE",
"57 -110 LINE"
);
}
);
width = 313;
}
);
leftKerningGroup = H;
rightKerningGroup = H;
unicode = 00A6;
},
{
glyphname = dieresiscomb;
layers = (
{
anchors = (
{
name = _top;
position = "{217, 700}";
},
{
name = top;
position = "{217, 887}";
}
);
layerId = "1C2BFDD8-856B-473B-8B37-FA70972360C9";
paths = (
{
closed = 1;
nodes = (
"375 742 OFFCURVE",
"413 765 OFFCURVE",
"413 814 CURVE",
"413 864 OFFCURVE",
"375 887 OFFCURVE",
"336 887 CURVE",
"296 887 OFFCURVE",
"259 864 OFFCURVE",
"259 814 CURVE",
"259 765 OFFCURVE",
"296 742 OFFCURVE",
"336 742 CURVE"
);
},
{
closed = 1;
nodes = (
"138 742 OFFCURVE",
"176 765 OFFCURVE",
"176 814 CURVE",
"176 864 OFFCURVE",
"138 887 OFFCURVE",
"99 887 CURVE",
"59 887 OFFCURVE",
"21 864 OFFCURVE",
"21 814 CURVE",
"21 765 OFFCURVE",
"59 742 OFFCURVE",
"99 742 CURVE"
);
}
);
width = 434;
}
);
unicode = 0308;
},
{
glyphname = dotaccentcomb;
layers = (
{
anchors = (
{
name = _top;
position = "{363, 700}";
},
{
name = top;
position = "{363, 887}";
}
);
layerId = "1C2BFDD8-856B-473B-8B37-FA70972360C9";
paths = (
{
closed = 1;
nodes = (
"403 741 OFFCURVE",
"440 765 OFFCURVE",
"440 814 CURVE",
"440 864 OFFCURVE",
"403 887 OFFCURVE",
"363 887 CURVE",
"324 887 OFFCURVE",
"286 864 OFFCURVE",
"286 814 CURVE",
"286 765 OFFCURVE",
"324 741 OFFCURVE",
"363 741 CURVE"
);
}
);
width = 427;
}
);
unicode = 0307;
},
{
glyphname = gravecomb;
layers = (
{
anchors = (
{
name = _top;
position = "{321, 700}";
},
{
name = top;
position = "{320, 746}";
}
);
layerId = "1C2BFDD8-856B-473B-8B37-FA70972360C9";
paths = (
{
closed = 1;
nodes = (
"462 746 LINE",
"306 882 LINE",
"21 882 LINE",
"178 746 LINE"
);
}
);
width = 483;
}
);
unicode = 0300;
},
{
glyphname = acutecomb;
layers = (
{
anchors = (
{
name = _top;
position = "{164, 700}";
},
{
name = top;
position = "{164, 746}";
}
);
layerId = "1C2BFDD8-856B-473B-8B37-FA70972360C9";
paths = (
{
closed = 1;
nodes = (
"306 746 LINE",
"462 882 LINE",
"178 882 LINE",
"21 746 LINE"
);
}
);
width = 483;
}
);
unicode = 0301;
},
{
glyphname = circumflexcomb;
layers = (
{
anchors = (
{
name = _top;
position = "{242, 700}";
},
{
name = top;
position = "{242, 746}";
}
);
layerId = "1C2BFDD8-856B-473B-8B37-FA70972360C9";
paths = (
{
closed = 1;
nodes = (
"462 746 LINE",
"242 882 LINE",
"21 746 LINE"
);
}
);
width = 483;
}
);
unicode = 0302;
},
{
glyphname = ringcomb;
layers = (
{
anchors = (
{
name = _top;
position = "{169, 700}";
},
{
name = top;
position = "{169, 736}";
}
);
layerId = "1C2BFDD8-856B-473B-8B37-FA70972360C9";
paths = (
{
closed = 1;
nodes = (
"239 736 OFFCURVE",
"316 749 OFFCURVE",
"316 821 CURVE",
"316 893 OFFCURVE",
"239 907 OFFCURVE",
"169 907 CURVE",
"98 907 OFFCURVE",
"21 893 OFFCURVE",
"21 821 CURVE",
"21 749 OFFCURVE",
"98 736 OFFCURVE",
"169 736 CURVE"
);
},
{
closed = 1;
nodes = (
"145 781 OFFCURVE",
"144 803 OFFCURVE",
"144 821 CURVE",
"144 839 OFFCURVE",
"145 862 OFFCURVE",
"169 862 CURVE",
"192 862 OFFCURVE",
"193 839 OFFCURVE",
"193 821 CURVE",
"193 803 OFFCURVE",
"192 781 OFFCURVE",
"169 781 CURVE"
);
}
);
width = 337;
}
);
unicode = 030A;
},
{
glyphname = tildecomb;
layers = (
{
anchors = (
{
name = _top;
position = "{280, 700}";
},
{
name = top;
position = "{280, 746}";
}
);
layerId = "1C2BFDD8-856B-473B-8B37-FA70972360C9";
paths = (
{
closed = 1;
nodes = (
"539 882 OFFCURVE",
"525 739 OFFCURVE",
"370 739 CURVE",
"279 739 OFFCURVE",
"239 786 OFFCURVE",
"167 786 CURVE",
"108 786 OFFCURVE",
"100 746 OFFCURVE",
"100 746 CURVE",
"21 746 LINE",
"21 746 OFFCURVE",
"36 889 OFFCURVE",
"191 889 CURVE",
"282 889 OFFCURVE",
"321 843 OFFCURVE",
"393 843 CURVE",
"452 843 OFFCURVE",
"461 882 OFFCURVE",
"461 882 CURVE",
"539 882 LINE"
);
}
);
width = 560;
}
);
unicode = 0303;
},
{
glyphname = cedillacomb;
layers = (
{
anchors = (
{
name = _top;
position = "{216, 706}";
},
{
name = top;
position = "{216, 752}";
}
);
layerId = "1C2BFDD8-856B-473B-8B37-FA70972360C9";
paths = (
{
closed = 1;
nodes = (
"270 -211 OFFCURVE",
"346 -195 OFFCURVE",
"346 -126 CURVE",
"346 -77 OFFCURVE",
"311 -55 OFFCURVE",
"265 -46 CURVE",
"286 19 LINE",
"154 19 LINE",
"127 -85 LINE",
"199 -85 OFFCURVE",
"224 -97 OFFCURVE",
"224 -126 CURVE",
"224 -144 OFFCURVE",
"212 -166 OFFCURVE",
"167 -166 CURVE",
"137 -166 OFFCURVE",
"103 -157 OFFCURVE",
"98 -126 CURVE",
"50 -126 LINE",
"53 -198 OFFCURVE",
"129 -211 OFFCURVE",
"199 -211 CURVE"
);
}
);
width = 427;
}
);
unicode = 0327;
},
{
glyphname = strokeshortcomb;
layers = (
{
anchors = (
{
name = _top;
position = "{274, 700}";
},
{
name = top;
position = "{274, 746}";
}
);
layerId = "1C2BFDD8-856B-473B-8B37-FA70972360C9";
paths = (
{
closed = 1;
nodes = (
"528 322 LINE",
"528 382 LINE",
"21 382 LINE",
"21 322 LINE"
);
}
);
width = 549;
}
);
unicode = 0335;
},
{
glyphname = slashlongcomb;
layers = (
{
anchors = (
{
name = _top;
position = "{363, 700}";
},
{
name = top;
position = "{363, 746}";
}
);
layerId = "1C2BFDD8-856B-473B-8B37-FA70972360C9";
paths = (
{
closed = 1;
nodes = (
"617 535 LINE",
"475 595 LINE",
"109 169 LINE",
"252 109 LINE"
);
}
);
width = 427;
}
);
unicode = 0338;
},
{
glyphname = macron;
layers = (
{
anchors = (
{
name = _top;
position = "{244, 700}";
},
{
name = top;
position = "{242, 746}";
}
);
layerId = "1C2BFDD8-856B-473B-8B37-FA70972360C9";
paths = (
{
closed = 1;
nodes = (
"462 746 LINE",
"462 882 LINE",
"21 882 LINE",
"21 746 LINE"
);
}
);
width = 483;
}
);
unicode = 00AF;
},
{
glyphname = uniE0FF;
layers = (
{
layerId = "1C2BFDD8-856B-473B-8B37-FA70972360C9";
paths = (
{
closed = 1;
nodes = (
"729 0 LINE",
"729 700 LINE",
"28 700 LINE",
"28 0 LINE"
);
},
{
closed = 1;
nodes = (
"154 322 LINE",
"262 322 LINE",
"336 154 LINE",
"398 322 LINE",
"446 322 LINE",
"519 158 LINE",
"580 322 LINE",
"604 322 LINE",
"520 100 LINE",
"424 100 LINE",
"378 204 LINE",
"339 100 LINE",
"252 100 LINE"
);
},
{
closed = 1;
nodes = (
"277 601 LINE",
"370 601 LINE",
"463 489 LINE",
"463 601 LINE",
"481 601 LINE",
"481 378 LINE",
"407 378 LINE",
"296 526 LINE",
"296 378 LINE",
"277 378 LINE"
);
}
);
width = 757;
}
);
leftKerningGroup = H;
rightKerningGroup = H;
unicode = E0FF;
},
